<?xml version="1.0" encoding="UTF-8"?>
<svg id="Capa_2" data-name="Capa 2" xmlns="http://www.w3.org/2000/svg" viewBox="0 0 47.34 42.79">
  <defs>
    <style>
      .cls-1 {
        fill: #002fb0;
      }
    </style>
  </defs>
  <g id="Capa_1-2" data-name="Capa 1">
    <g>
      <path d="M22.76,5.51c0,.6-.49,1.08-1.08,1.08h-9.8c-.6,0-1.08-.49-1.08-1.08V1.89h11.97v3.62ZM32.62,5.81c.31,0,.62.03.92.07v-2.9c0-1.64-1.33-2.97-2.97-2.97H2.97C1.33,0,0,1.33,0,2.97v36.84c0,1.64,1.33,2.97,2.97,2.97h27.6c1.64,0,2.97-1.33,2.97-2.97v-8.18h-1.89v8.18c0,.6-.49,1.08-1.08,1.08H2.97c-.6,0-1.08-.49-1.08-1.08V2.97c0-.6.49-1.08,1.08-1.08h5.93v3.62c0,1.64,1.33,2.97,2.97,2.97h9.8c1.64,0,2.97-1.33,2.97-2.97V1.89h5.93c.6,0,1.08.49,1.08,1.08v2.91c.32-.04.64-.07.97-.07"/>
      <path d="M13.05,14.34c-.41-.32-1.01-.25-1.33.16l-2.61,3.33-1.33-1.33c-.37-.37-.97-.37-1.34,0-.37.37-.37.97,0,1.34l2.08,2.08s.01,0,.02.01c.02.02.04.04.06.06.05.04.1.06.15.08.03.02.06.04.1.05.11.04.22.06.33.06h0c.11,0,.22-.02.32-.06.02,0,.03,0,.05-.02.1-.04.19-.1.27-.18,0,0,.02,0,.03-.02,0,0,.01-.02.02-.03.02-.02.04-.04.06-.06l3.27-4.17c.32-.41.25-1.01-.16-1.33"/>
      <path d="M13.05,22.56c-.41-.32-1.01-.25-1.33.16l-2.61,3.33-1.33-1.33c-.37-.37-.97-.37-1.34,0-.37.37-.37.97,0,1.34l2.08,2.09s.01,0,.02.01c.02.02.04.04.06.06.05.04.1.06.15.09.03.02.06.04.1.05.11.04.22.06.33.06h0c.11,0,.22-.02.32-.06.02,0,.03-.01.05-.02.1-.04.19-.1.27-.18,0,0,.02,0,.02-.02,0,0,.01-.02.02-.03.02-.02.04-.04.06-.06l3.27-4.17c.32-.41.25-1.01-.16-1.33"/>
      <path d="M13.05,30.79c-.41-.32-1.01-.25-1.33.16l-2.61,3.33-1.33-1.33c-.37-.37-.97-.37-1.34,0-.37.37-.37.97,0,1.34l2.08,2.09s.01,0,.02.01c.02.02.04.04.06.06.05.04.1.06.15.09.03.02.06.04.1.05.11.04.22.06.33.06h0c.11,0,.22-.02.32-.06.02,0,.03-.01.05-.02.1-.04.19-.1.27-.18,0,0,.02,0,.02-.02,0,0,.01-.02.02-.03.02-.02.04-.04.06-.06l3.27-4.17c.32-.41.25-1.01-.16-1.33"/>
      <path d="M23.02,16.22h-6.73c-.52,0-.95.42-.95.95s.42.95.95.95h6.73v-1.89Z"/>
      <path d="M23.02,24.45h-6.73c-.52,0-.95.42-.95.95s.42.95.95.95h6.73v-1.89Z"/>
      <path d="M26.44,32.67h-10.14c-.52,0-.95.42-.95.95s.42.95.95.95h10.14c.52,0,.95-.42.95-.95s-.42-.95-.95-.95"/>
      <path class="cls-1" d="M26.6,16.3h11.78c.89,0,1.63.74,1.63,1.63v9.85c0,.89-.74,1.63-1.63,1.63h-11.78c-.89,0-1.63-.74-1.63-1.63v-9.85c0-.94.74-1.63,1.63-1.63"/>
      <path class="cls-1" d="M38.23,12.88c0-1.88,1.53-3.41,3.41-3.41s3.42,1.53,3.42,3.41v2.92h2.28v-2.92c0-3.17-2.57-5.74-5.74-5.74s-5.74,2.57-5.74,5.74v2.92h2.28v-2.92h.1Z"/>
    </g>
  </g>
</svg>