<?xml version="1.0" encoding="UTF-8"?>
<svg id="Capa_2" data-name="Capa 2" xmlns="http://www.w3.org/2000/svg" viewBox="0 0 35.72 41.48">
  <defs>
    <style>

     .icon {
        scale: 0.7;
      }
      .cls-1 {
        fill: #002fb0;
      }

      .cls-2 {
        fill: #fff;
      }
    </style>
  </defs>
  <g id="Capa_1-2" data-name="Capa 1" class="icon">
    <g>
      <path d="M32.79,22.34h-2.1c-1,0-1.84.83-1.84,1.84v5.81c0,.61-.48,1.09-1.09,1.09h-4.33c-1.14,0-2.05.92-2.05,2.05l.09,5.77-12.28-1.09v-8.26c0-.92-.44-1.84-1.14-2.45-3.28-2.8-5.33-7.17-5.33-11.36,0-7.21,5.86-13.07,13.07-13.07,6.82,0,12.41,5.12,12.98,11.93.04.61.22,1.14.52,1.7l3.67,5.6c.04.09.04.17,0,.26,0,.13-.09.17-.18.17M35.28,20.46l-3.63-5.55c-.09-.13-.13-.35-.18-.52C30.73,6.16,24,0,15.78,0,7.08,0,0,7.08,0,15.78c0,5.03,2.36,10.05,6.25,13.42.13.13.22.26.22.39v8.22c0,1.36,1.01,2.49,2.36,2.58l12.41,1.09h.22c.66,0,1.27-.26,1.75-.7.52-.48.83-1.18.83-1.92v-5.11h3.67c2.05,0,3.76-1.7,3.76-3.76v-4.94h1.22c1.09,0,2.1-.61,2.58-1.53.61-1.01.57-2.14,0-3.06"/>
      <path d="M25.27,14.69c.48,0,.92-.39.92-.92,0-.48-.39-.92-.92-.92h-1.92c0-1.44-1.18-2.67-2.67-2.67v-1.92c0-.48-.39-.92-.92-.92-.48,0-.92.39-.92.92v1.92h-1.71v-1.92c0-.48-.39-.92-.92-.92-.48,0-.92.39-.92.92v1.92h-1.71v-1.92c0-.48-.39-.92-.92-.92s-.92.39-.92.92v1.92c-1.44,0-2.67,1.18-2.67,2.67h-1.92c-.48,0-.92.39-.92.92s.39.92.92.92h1.92v1.71h-1.92c-.48,0-.92.39-.92.92,0,.48.39.92.92.92h1.92v1.66h-1.92c-.48,0-.92.39-.92.92,0,.48.39.92.92.92h1.92c0,1.44,1.18,2.67,2.67,2.67v1.92c0,.48.39.92.92.92s.92-.39.92-.92v-1.92h1.71v1.92c0,.48.39.92.92.92.48,0,.92-.39.92-.92v-1.92h1.71v1.92c0,.48.39.92.92.92.48,0,.92-.39.92-.92v-1.92c1.44,0,2.67-1.18,2.67-2.67h1.92c.48,0,.92-.39.92-.92s-.44-.92-.92-.92h-1.92v-1.71h1.92c.48,0,.92-.39.92-.92s-.44-.87-.92-.87h-1.92v-1.71h1.92Z"/>
      <path class="cls-1" d="M20.72,22.56h-8.87c-.48,0-.83-.39-.83-.83v-8.87c0-.48.39-.83.83-.83h8.83c.48,0,.83.39.83.83v8.83c.04.48-.35.87-.79.87"/>
      <g>
        <path class="cls-2" d="M16.61,19.93l-.41-1.35h-2.07l-.41,1.35h-1.3l2.01-5.71h1.47l2.01,5.71h-1.3ZM15.91,17.57c-.38-1.23-.6-1.92-.64-2.08s-.08-.29-.1-.38c-.09.33-.33,1.15-.74,2.46h1.48Z"/>
        <path class="cls-2" d="M18.48,14.46c0-.39.22-.58.65-.58s.65.19.65.58c0,.18-.05.33-.16.43-.11.1-.27.15-.48.15-.43,0-.65-.19-.65-.58ZM19.72,19.93h-1.19v-4.35h1.19v4.35Z"/>
      </g>
    </g>
  </g>
</svg>