<?xml version="1.0" encoding="UTF-8"?>
<svg id="Capa_2" data-name="Capa 2" xmlns="http://www.w3.org/2000/svg" viewBox="0 0 40.99 40.83">
  <defs>
    <style>
      .cls-1 {
        fill: #002fb0;
      }
    </style>
  </defs>
  <g id="Capa_1-2" data-name="Capa 1">
    <g>
      <g>
        <path d="M37.57,37.42H3.42V13.52h34.16v23.9ZM38.43,4h-2.22v2.04c0,2.04-1.71,3.74-3.76,3.74s-3.76-1.7-3.76-3.74v-2.04h-4.53v2.04c0,2.04-1.71,3.74-3.76,3.74s-3.76-1.7-3.76-3.74v-2.04h-4.53v2.04c0,2.04-1.71,3.74-3.76,3.74s-3.76-1.7-3.76-3.74v-2.04h-2.05c-1.45,0-2.56,1.11-2.56,2.55v31.73c0,1.45,1.11,2.55,2.56,2.55h35.87c1.45,0,2.56-1.11,2.56-2.55V6.55c0-1.36-1.11-2.55-2.56-2.55"/>
        <path d="M8.54,8.08c1.11,0,2.05-.94,2.05-2.04v-4c0-1.11-.94-2.04-2.05-2.04s-2.05.93-2.05,2.04v4.08c0,1.11.94,1.96,2.05,1.96"/>
        <path d="M20.49,8.08c1.11,0,2.05-.94,2.05-2.04v-4c0-1.11-.94-2.04-2.05-2.04s-2.05.93-2.05,2.04v4.08c0,1.11.94,1.96,2.05,1.96"/>
        <path d="M32.45,8.08c1.11,0,2.05-.94,2.05-2.04v-4c0-1.11-.94-2.04-2.05-2.04s-2.05.93-2.05,2.04v4.08c0,1.11.94,1.96,2.05,1.96"/>
      </g>
      <rect class="cls-1" x="12.13" y="15.48" width="3.84" height="3.49"/>
      <rect class="cls-1" x="18.62" y="15.48" width="3.84" height="3.49"/>
      <rect class="cls-1" x="25.11" y="15.48" width="3.84" height="3.49"/>
      <rect class="cls-1" x="5.64" y="20.92" width="3.84" height="3.49"/>
      <rect class="cls-1" x="12.13" y="20.92" width="3.84" height="3.49"/>
      <rect class="cls-1" x="18.62" y="20.92" width="3.84" height="3.49"/>
      <rect class="cls-1" x="25.11" y="20.92" width="3.84" height="3.49"/>
      <rect class="cls-1" x="5.64" y="26.45" width="3.84" height="3.49"/>
      <rect class="cls-1" x="12.13" y="26.45" width="3.84" height="3.49"/>
      <rect class="cls-1" x="18.62" y="26.45" width="3.84" height="3.49"/>
      <rect class="cls-1" x="25.11" y="26.45" width="3.84" height="3.49"/>
      <rect class="cls-1" x="5.64" y="31.98" width="3.84" height="3.49"/>
      <rect class="cls-1" x="12.13" y="31.98" width="3.84" height="3.49"/>
      <rect class="cls-1" x="18.62" y="31.98" width="3.84" height="3.49"/>
      <rect class="cls-1" x="25.11" y="31.98" width="3.84" height="3.49"/>
      <rect class="cls-1" x="31.42" y="15.48" width="3.84" height="3.49"/>
      <rect class="cls-1" x="31.42" y="20.92" width="3.84" height="3.49"/>
      <rect class="cls-1" x="31.42" y="26.45" width="3.84" height="3.49"/>
    </g>
  </g>
</svg>