<?xml version="1.0" encoding="UTF-8"?>
<svg id="Capa_2" data-name="Capa 2" xmlns="http://www.w3.org/2000/svg" viewBox="0 0 65.85 56.06">
  <defs>
    <style>
      .cls-1 {
        fill: #FFFFFF;
      }
    </style>
  </defs>
  <g id="Capa_1-2" data-name="Capa 1">
      <g>
        <path d="M49.96,37.42H15.8V13.52h34.16v23.9ZM50.81,4h-2.22v2.04c0,2.04-1.71,3.74-3.76,3.74s-3.76-1.7-3.76-3.74v-2.04h-4.53v2.04c0,2.04-1.71,3.74-3.76,3.74s-3.76-1.7-3.76-3.74v-2.04h-4.53v2.04c0,2.04-1.71,3.74-3.76,3.74s-3.76-1.7-3.76-3.74v-2.04h-2.05c-1.45,0-2.56,1.11-2.56,2.55v31.73c0,1.45,1.11,2.55,2.56,2.55h35.87c1.45,0,2.56-1.11,2.56-2.55V6.55c0-1.36-1.11-2.55-2.56-2.55"/>
        <path d="M20.92,8.08c1.11,0,2.05-.94,2.05-2.04v-4c0-1.11-.94-2.04-2.05-2.04s-2.05.93-2.05,2.04v4.08c0,1.11.94,1.96,2.05,1.96"/>
        <path d="M32.88,8.08c1.11,0,2.05-.94,2.05-2.04v-4c0-1.11-.94-2.04-2.05-2.04s-2.05.93-2.05,2.04v4.08c0,1.11.94,1.96,2.05,1.96"/>
        <path d="M44.83,8.08c1.11,0,2.05-.94,2.05-2.04v-4c0-1.11-.94-2.04-2.05-2.04s-2.05.93-2.05,2.04v4.08c0,1.11.94,1.96,2.05,1.96"/>
      </g>
      <rect class="cls-1" x="24.51" y="15.48" width="3.84" height="3.49"/>
      <rect class="cls-1" x="31" y="15.48" width="3.84" height="3.49"/>
      <rect class="cls-1" x="37.49" y="15.48" width="3.84" height="3.49"/>
      <rect class="cls-1" x="18.02" y="20.92" width="3.84" height="3.49"/>
      <rect class="cls-1" x="24.51" y="20.92" width="3.84" height="3.49"/>
      <rect class="cls-1" x="31" y="20.92" width="3.84" height="3.49"/>
      <rect class="cls-1" x="37.49" y="20.92" width="3.84" height="3.49"/>
      <rect class="cls-1" x="18.02" y="26.45" width="3.84" height="3.49"/>
      <rect class="cls-1" x="24.51" y="26.45" width="3.84" height="3.49"/>
      <rect class="cls-1" x="31" y="26.45" width="3.84" height="3.49"/>
      <rect class="cls-1" x="37.49" y="26.45" width="3.84" height="3.49"/>
      <rect class="cls-1" x="18.02" y="31.98" width="3.84" height="3.49"/>
      <rect class="cls-1" x="24.51" y="31.98" width="3.84" height="3.49"/>
      <rect class="cls-1" x="31" y="31.98" width="3.84" height="3.49"/>
      <rect class="cls-1" x="37.49" y="31.98" width="3.84" height="3.49"/>
      <rect class="cls-1" x="43.81" y="15.48" width="3.84" height="3.49"/>
      <rect class="cls-1" x="43.81" y="20.92" width="3.84" height="3.49"/>
      <rect class="cls-1" x="43.81" y="26.45" width="3.84" height="3.49"/>
    
  </g>
</svg>