<?xml version="1.0" encoding="UTF-8"?>
<svg id="Capa_2" data-name="Capa 2" xmlns="http://www.w3.org/2000/svg" viewBox="0 0 28.33 24.6">
  <defs>
    <style>
      .cls-1 {
        fill: #575c5c;
      }

      .cls-2 {
        fill: #fff;
      }

      .cls-3 {
        fill: #e22021;
      }

      .cls-4 {
        fill: #bbbdc5;
      }

      .cls-5 {
        fill: #0081c1;
      }

      .cls-6 {
        fill: #dcdcdd;
      }
    </style>
  </defs>
  <g id="Capa_1-2" data-name="Capa 1">
    <g>
      <path class="cls-4" d="M17.09,4.39V1.31C17.09.59,17.68,0,18.4,0s1.31.59,1.31,1.31v3.08c0,.73-.59,1.31-1.31,1.31s-1.31-.59-1.31-1.31"/>
      <path class="cls-4" d="M3.86,5.71c.72,0,1.31-.59,1.31-1.31V1.31c0-.73-.59-1.31-1.31-1.31s-1.31.59-1.31,1.31v3.08c0,.72.59,1.31,1.31,1.31"/>
      <path class="cls-3" d="M20.87,2.85h-.51v1.54c.04,1.08-.81,1.99-1.89,2.03-1.08.04-1.99-.81-2.03-1.89,0-.05,0-.09,0-.14v-1.54h-3.34v1.54c0,1.08-.88,1.96-1.96,1.96s-1.96-.88-1.96-1.96v-1.54h-3.34v1.54c.04,1.08-.81,1.99-1.89,2.03-1.08.04-1.99-.81-2.03-1.89,0-.05,0-.09,0-.14v-1.54h-.51C.62,2.85,0,3.48,0,4.25v3.45h22.26v-3.45c0-.77-.62-1.39-1.39-1.39"/>
      <path class="cls-4" d="M11.13,5.71c.72,0,1.31-.59,1.31-1.31V1.31c0-.73-.59-1.31-1.31-1.31s-1.31.59-1.31,1.31v3.08c0,.72.59,1.31,1.31,1.31"/>
      <path class="cls-6" d="M2.22,20.09c0,.28.23.51.52.51h1.39c.28,0,.51-.23.51-.51v-1.4c0-.28-.23-.51-.51-.52h-1.39c-.28,0-.51.23-.52.52v1.4ZM2.22,16c0,.29.23.52.52.52h1.39c.28,0,.51-.23.51-.52v-1.39c0-.28-.23-.52-.51-.52h-1.39c-.28,0-.52.23-.52.52v1.39ZM7.35,20.09c0,.28.23.51.52.51h1.39c.28,0,.52-.23.52-.51v-1.4c0-.29-.23-.52-.52-.52h-1.39c-.28,0-.51.23-.52.52v1.4ZM7.35,16c0,.29.23.51.52.52h1.39c.28,0,.52-.23.52-.52v-1.39c0-.28-.23-.52-.52-.52h-1.39c-.28,0-.51.23-.52.52v1.39ZM7.35,11.92c0,.29.23.52.52.52h1.39c.28,0,.52-.23.52-.52v-1.39c0-.29-.23-.52-.52-.52h-1.39c-.28,0-.51.23-.52.52v1.39ZM12.49,20.09c0,.29.23.52.52.51h1.4c.28,0,.51-.23.52-.51v-1.4c0-.28-.23-.51-.52-.52h-1.39c-.28,0-.52.23-.52.52v1.4ZM12.49,16c0,.29.23.52.52.52h1.4c.28,0,.51-.23.52-.52v-1.39c0-.28-.23-.51-.52-.52h-1.39c-.28,0-.52.23-.52.52v1.39ZM12.49,11.92c0,.29.23.52.52.52h1.39c.28,0,.51-.23.51-.52v-1.39c0-.28-.23-.51-.51-.52h-1.38c-.28,0-.52.23-.52.52v1.39ZM17.62,16c0,.29.23.52.51.52h1.39c.28,0,.51-.23.51-.52v-1.39c0-.28-.23-.52-.51-.52h-1.39c-.28,0-.51.23-.51.52v1.39ZM17.62,11.92c0,.29.23.52.51.52h1.39c.28,0,.51-.23.51-.52v-1.39c0-.28-.23-.51-.51-.52h-1.39c-.28,0-.51.23-.51.52v1.39ZM0,8.35h22.26v12.52c0,.77-.62,1.39-1.39,1.39H1.39c-.77,0-1.39-.62-1.39-1.39v-12.52Z"/>
      <path class="cls-2" d="M22.27,23.67c-1.37,0-2.66-.53-3.63-1.5-.97-.97-1.5-2.26-1.5-3.63s.53-2.66,1.5-3.63c.97-.97,2.26-1.5,3.63-1.5s2.66.53,3.63,1.5c.97.97,1.5,2.26,1.5,3.63s-.53,2.66-1.5,3.63c-.97.97-2.26,1.5-3.63,1.5"/>
      <path class="cls-2" d="M22.27,12.47c-1.62,0-3.14.63-4.29,1.78-1.15,1.14-1.78,2.67-1.78,4.29s.63,3.14,1.78,4.29c1.15,1.15,2.67,1.78,4.29,1.78s3.14-.63,4.29-1.78c1.15-1.14,1.78-2.67,1.78-4.29s-.63-3.14-1.78-4.29c-1.15-1.15-2.67-1.78-4.29-1.78M22.27,14.34c1.12,0,2.17.44,2.97,1.23s1.23,1.85,1.23,2.97-.44,2.18-1.23,2.97c-.79.79-1.85,1.23-2.97,1.23s-2.17-.44-2.97-1.23-1.23-1.85-1.23-2.97.44-2.17,1.23-2.97,1.85-1.23,2.97-1.23"/>
      <path class="cls-1" d="M24.84,16.04l-2.58,2.17-1.81-1.84c-.11-.11-.29-.12-.4-.01h0c-.12.11-.13.29-.03.41l1.71,2.04c-.03.16,0,.33.12.46h0c.2.22.54.23.75.03l2.74-2.69c.14-.14.15-.36.01-.51h0c-.13-.15-.36-.17-.51-.04"/>
      <path class="cls-5" d="M25.23,21.5c-.79.79-1.85,1.23-2.97,1.23s-2.17-.44-2.97-1.23-1.23-1.85-1.23-2.97.44-2.17,1.23-2.97c.79-.79,1.85-1.23,2.97-1.23s2.17.44,2.97,1.23c.79.79,1.23,1.85,1.23,2.97s-.44,2.18-1.23,2.97M27.22,16.44c-.27-.64-.66-1.21-1.15-1.71-.49-.49-1.07-.88-1.71-1.15-.66-.28-1.37-.42-2.09-.42s-1.43.14-2.09.42c-.64.27-1.21.66-1.71,1.15-.49.49-.88,1.07-1.15,1.71-.28.66-.42,1.37-.42,2.09s.14,1.43.42,2.09c.27.64.66,1.21,1.15,1.71.49.49,1.07.88,1.71,1.15.66.28,1.37.42,2.09.42s1.43-.14,2.09-.42c.64-.27,1.21-.66,1.71-1.15.49-.49.88-1.07,1.15-1.71.28-.66.42-1.37.42-2.09s-.14-1.43-.42-2.09"/>
    </g>
  </g>
</svg>