<?xml version="1.0" encoding="UTF-8"?>
<svg id="Capa_2" data-name="Capa 2" xmlns="http://www.w3.org/2000/svg" viewBox="0 0 71.9 25.11">
  <defs>
    <style>
      .cls-1 {
        fill: #002fb0;
      }
    </style>
  </defs>
  <g id="Capa_1-2" data-name="Capa 1">
    <g>
      <g>
        <path d="M32.38,10.14c-.57,0-1.01.21-1.32.64-.31.43-.47,1.03-.47,1.79,0,1.59.6,2.39,1.79,2.39.5,0,1.11-.12,1.82-.38v1.27c-.59.24-1.24.37-1.96.37-1.04,0-1.83-.31-2.38-.95-.55-.63-.83-1.53-.83-2.71,0-.74.13-1.39.41-1.95.27-.56.66-.99,1.16-1.29.51-.3,1.1-.45,1.78-.45s1.39.17,2.09.5l-.49,1.23c-.27-.13-.54-.24-.81-.33s-.54-.14-.8-.14Z"/>
        <path d="M39.07,16.12l-.29-.74h-.04c-.25.32-.51.54-.77.66-.26.12-.61.18-1.04.18-.52,0-.94-.15-1.24-.45-.3-.3-.45-.73-.45-1.28s.2-1.01.61-1.28c.41-.28,1.02-.43,1.83-.46l.95-.03v-.24c0-.55-.28-.83-.85-.83-.44,0-.95.13-1.54.4l-.49-1.01c.63-.33,1.33-.49,2.09-.49s1.29.16,1.68.48.59.8.59,1.46v3.64h-1.04ZM38.63,13.59l-.58.02c-.43.01-.75.09-.97.23s-.32.36-.32.65c0,.42.24.63.72.63.34,0,.62-.1.83-.3.21-.2.31-.46.31-.79v-.45Z"/>
        <path d="M46.68,16.12h-1.49v-3.19c0-.39-.07-.69-.21-.89-.14-.2-.36-.3-.67-.3-.42,0-.72.14-.9.42-.19.28-.28.74-.28,1.38v2.57h-1.49v-5.46h1.14l.2.7h.08c.17-.26.39-.46.69-.6.29-.13.62-.2.99-.2.63,0,1.12.17,1.45.51.33.34.49.84.49,1.49v3.56Z"/>
        <path d="M50.43,16.22c-1.7,0-2.55-.93-2.55-2.8,0-.93.23-1.64.69-2.13.46-.49,1.12-.74,1.99-.74.63,0,1.2.12,1.7.37l-.44,1.15c-.23-.09-.45-.17-.65-.23-.2-.06-.4-.09-.61-.09-.77,0-1.16.55-1.16,1.65s.39,1.6,1.16,1.6c.29,0,.55-.04.8-.11.24-.08.49-.2.73-.36v1.27c-.24.15-.48.26-.73.32-.25.06-.56.09-.93.09Z"/>
        <path d="M55.82,16.22c-.88,0-1.57-.24-2.06-.73s-.74-1.17-.74-2.06.23-1.62.69-2.12c.46-.5,1.09-.75,1.9-.75s1.37.22,1.8.66.64,1.05.64,1.82v.72h-3.52c.02.42.14.75.38.99s.56.36.99.36c.33,0,.64-.03.93-.1s.6-.18.92-.33v1.15c-.26.13-.54.23-.83.29-.3.06-.66.1-1.08.1ZM55.61,11.62c-.32,0-.56.1-.74.3-.18.2-.28.48-.31.85h2.09c0-.37-.1-.65-.29-.85-.19-.2-.44-.3-.75-.3Z"/>
        <path d="M60.75,16.12h-1.49v-7.6h1.49v7.6Z"/>
        <path d="M65.78,16.12l-.29-.74h-.04c-.25.32-.51.54-.77.66-.26.12-.61.18-1.04.18-.52,0-.94-.15-1.24-.45-.3-.3-.45-.73-.45-1.28s.2-1.01.61-1.28c.41-.28,1.02-.43,1.83-.46l.95-.03v-.24c0-.55-.28-.83-.85-.83-.44,0-.95.13-1.54.4l-.49-1.01c.63-.33,1.33-.49,2.09-.49s1.29.16,1.68.48.59.8.59,1.46v3.64h-1.04ZM65.34,13.59l-.58.02c-.43.01-.75.09-.97.23s-.32.36-.32.65c0,.42.24.63.72.63.34,0,.62-.1.83-.3.21-.2.31-.46.31-.79v-.45Z"/>
        <path d="M71.4,10.56c.2,0,.37.01.5.04l-.11,1.4c-.12-.03-.27-.05-.44-.05-.48,0-.85.12-1.11.37-.26.24-.4.59-.4,1.03v2.78h-1.49v-5.46h1.13l.22.92h.07c.17-.31.4-.55.69-.74.29-.19.6-.28.94-.28Z"/>
      </g>
      <path class="cls-1" d="M15.34,12.54l5.2,5.17-2.73,2.71-5.2-5.17-5.2,5.17-2.69-2.71,5.2-5.17-5.2-5.16,2.69-2.68,5.2,5.17,5.2-5.17,2.73,2.68-5.2,5.16ZM25.27,12.54C25.27,5.6,19.6,0,12.62,0S0,5.6,0,12.54s5.64,12.57,12.62,12.57,12.65-5.63,12.65-12.57"/>
    </g>
  </g>
</svg>