<?xml version="1.0" encoding="UTF-8"?>
<svg id="Capa_2" data-name="Capa 2" xmlns="http://www.w3.org/2000/svg" viewBox="0 0 40.9 61.49">
  <defs>
    <style>
      .cls-1 {
        fill: #002fb0;
      }
    </style>
  </defs>
  <g id="Capa_1-2" data-name="Capa 1">
    <g>
      <g>
        <path d="M14.68,14.34c-.41-.32-1.01-.25-1.33.16l-2.61,3.33-1.33-1.33c-.37-.37-.97-.37-1.34,0-.37.37-.37.97,0,1.34l2.08,2.08s.01,0,.02.01c.02.02.04.04.06.06.05.04.1.06.15.08.03.02.06.04.1.05.11.04.22.07.33.07h0c.11,0,.22-.02.32-.06.02,0,.03-.01.05-.02.1-.04.19-.1.27-.18,0,0,.02,0,.03-.02,0,0,.01-.02.02-.03.02-.02.04-.04.06-.06l3.27-4.17c.32-.41.25-1.01-.16-1.33"/>
        <path d="M14.68,22.56c-.41-.32-1.01-.25-1.33.16l-2.61,3.33-1.33-1.33c-.37-.37-.97-.37-1.34,0-.37.37-.37.97,0,1.34l2.08,2.08s.01,0,.02.01c.02.02.04.04.06.06.05.04.1.06.15.08.03.02.06.04.1.05.11.04.22.06.33.06h0c.11,0,.22-.02.32-.06.02,0,.03-.01.05-.02.1-.04.19-.1.27-.18,0,0,.02,0,.02-.02,0,0,.01-.02.02-.03.02-.02.04-.04.06-.06l3.27-4.17c.32-.41.25-1.01-.16-1.33"/>
        <path d="M14.68,30.79c-.41-.32-1.01-.25-1.33.16l-2.61,3.33-1.33-1.33c-.37-.37-.97-.37-1.34,0-.37.37-.37.97,0,1.34l2.08,2.08s.01,0,.02.01c.02.02.04.04.06.06.05.04.1.06.15.08.03.02.06.04.1.05.11.04.22.06.33.06h0c.11,0,.22-.02.32-.06.02,0,.03-.01.05-.02.1-.04.19-.1.27-.18,0,0,.02,0,.02-.02,0,0,.01-.02.02-.03.02-.02.04-.04.06-.06l3.27-4.17c.32-.41.25-1.01-.16-1.33"/>
        <path d="M23.91,16.22h-5.98c-.52,0-.95.42-.95.95s.42.95.95.95h5.57c.1-.64.24-1.28.41-1.89"/>
        <path d="M23.75,24.45h-5.82c-.52,0-.95.42-.95.95s.42.95.95.95h6.41c-.23-.61-.43-1.25-.59-1.89"/>
        <path d="M28.07,32.67h-10.14c-.52,0-.95.42-.95.95s.42.95.95.95h10.14c.52,0,.95-.42.95-.95s-.42-.95-.95-.95"/>
        <path d="M24.39,5.51c0,.6-.49,1.08-1.08,1.08h-9.8c-.6,0-1.08-.49-1.08-1.08V1.89h11.96v3.62ZM35.18,9.34V2.97c0-1.64-1.34-2.97-2.98-2.97H4.61C2.97,0,1.63,1.33,1.63,2.97v36.84c0,1.64,1.33,2.97,2.97,2.97h27.6c1.64,0,2.98-1.33,2.98-2.97v-7.88c-.66-.24-1.29-.53-1.89-.88v8.75c0,.6-.49,1.08-1.08,1.08H4.61c-.6,0-1.08-.49-1.08-1.08V2.97c0-.6.49-1.08,1.08-1.08h5.93v3.62c0,1.64,1.33,2.97,2.97,2.97h9.8c1.64,0,2.98-1.33,2.98-2.97V1.89h5.93c.6,0,1.08.48,1.08,1.08v7.24c.6-.35,1.23-.64,1.89-.88"/>
        <path class="cls-1" d="M42.3,19.26l-2.14,2.14c-.19.27-.48.45-.88.45-.64,0-1.08-.43-1.08-1.08v-5.38c0-.65.43-1.08,1.08-1.08s1.08.43,1.08,1.08v2.8l.43-.43c.43-.43,1.08-.43,1.51,0,.43.43.43,1.08,0,1.51M46.5,15.07c.43-.43.43-1.08,0-1.51-.43-.43-1.08-.43-1.51,0l-.43.43c-1.18-.97-2.58-1.51-4.2-1.72v-2.26h1.08c.65,0,1.08-.43,1.08-1.08s-.43-1.08-1.08-1.08h-4.31c-.65,0-1.08.43-1.08,1.08s.43,1.08,1.08,1.08h1.08v2.26c-4.2.54-7.53,4.09-7.53,8.5,0,4.74,3.88,8.61,8.61,8.61s8.61-3.88,8.61-8.61c0-1.94-.65-3.77-1.83-5.27l.43-.43Z"/>
        <path class="cls-1" d="M28.09,20.13h-2.15c-.65,0-1.08.43-1.08,1.08s.43,1.08,1.08,1.08h2.15c.65,0,1.08-.43,1.08-1.08s-.43-1.08-1.08-1.08"/>
        <path class="cls-1" d="M28.85,15.82h-1.08c-.65,0-1.08.43-1.08,1.08s.43,1.08,1.08,1.08h1.08c.65,0,1.08-.43,1.08-1.08s-.54-1.08-1.08-1.08"/>
        <path class="cls-1" d="M28.85,24.43h-1.08c-.65,0-1.08.43-1.08,1.08s.43,1.08,1.08,1.08h1.08c.65,0,1.08-.43,1.08-1.08s-.54-1.08-1.08-1.08"/>
      </g>

    </g>
  </g>
</svg>