<?xml version="1.0" encoding="UTF-8"?>
<svg id="Capa_2" data-name="Capa 2" xmlns="http://www.w3.org/2000/svg" viewBox="0 0 48.34 58.29">
  <defs>
    <style>
      .cls-1 {
        fill: #002fb0;
      }
    </style>
  </defs>
  <g id="Capa_1-2" data-name="Capa 1">
    <g>
      <g>
        <path d="M23.89,5.51c0,.6-.49,1.08-1.08,1.08h-9.8c-.6,0-1.08-.49-1.08-1.08V1.89h11.96v3.62ZM34.68,6.03v-3.05c0-1.64-1.34-2.97-2.98-2.97H4.11C2.47,0,1.13,1.33,1.13,2.97v36.84c0,1.64,1.33,2.97,2.97,2.97h27.6c1.64,0,2.98-1.33,2.98-2.97v-8.12c-.62.09-1.25.15-1.89.15v7.97c0,.6-.49,1.08-1.08,1.08H4.11c-.6,0-1.08-.49-1.08-1.08V2.97c0-.6.49-1.08,1.08-1.08h5.93v3.62c0,1.64,1.33,2.97,2.97,2.97h9.8c1.64,0,2.98-1.33,2.98-2.97V1.89h5.93c.6,0,1.08.49,1.08,1.08v2.9c.64,0,1.27.06,1.89.15"/>
        <path d="M14.18,14.34c-.41-.32-1.01-.25-1.33.16l-2.61,3.33-1.33-1.33c-.37-.37-.97-.37-1.34,0-.37.37-.37.97,0,1.34l2.08,2.08s.01,0,.02.01c.02.02.04.04.06.06.05.04.1.06.15.08.03.02.06.04.1.05.11.04.22.06.33.06h0c.11,0,.22-.02.32-.06.02,0,.03-.01.05-.02.1-.04.19-.1.27-.18,0,0,.02-.01.03-.02,0,0,.01-.02.02-.03.02-.02.04-.04.06-.06l3.27-4.17c.32-.41.25-1.01-.16-1.33"/>
        <path d="M14.18,22.56c-.41-.32-1.01-.25-1.33.16l-2.61,3.33-1.33-1.33c-.37-.37-.97-.37-1.34,0-.37.37-.37.97,0,1.34l2.08,2.08s.01,0,.02.01c.02.02.04.04.06.06.05.04.1.06.15.08.03.02.06.04.1.05.11.04.22.06.33.06h0c.11,0,.22-.02.32-.06.02,0,.03-.01.05-.02.1-.04.19-.1.27-.18,0,0,.02-.01.02-.02,0,0,.01-.02.02-.03.02-.02.04-.04.06-.06l3.27-4.17c.32-.41.25-1.01-.16-1.33"/>
        <path d="M14.18,30.79c-.41-.32-1.01-.25-1.33.16l-2.61,3.33-1.33-1.33c-.37-.37-.97-.37-1.34,0-.37.37-.37.97,0,1.34l2.08,2.08s.01,0,.02.01c.02.02.04.04.06.06.05.04.1.06.15.08.03.02.06.04.1.05.11.04.22.06.33.06h0c.11,0,.22-.02.32-.06.02,0,.03,0,.05-.02.1-.04.19-.1.27-.18,0,0,.02-.01.02-.02,0,0,.01-.02.02-.03.02-.02.04-.04.06-.06l3.27-4.17c.32-.41.25-1.01-.16-1.33"/>
        <path d="M20.07,16.22h-2.65c-.52,0-.95.42-.95.95s.42.95.95.95h2.42c.04-.64.1-1.28.23-1.89"/>
        <path d="M21.08,24.45h-3.66c-.52,0-.95.42-.95.95s.42.95.95.95h4.76c-.42-.6-.79-1.23-1.1-1.89"/>
        <path d="M27.57,32.67h-10.14c-.52,0-.95.42-.95.95s.42.95.95.95h10.14c.52,0,.95-.42.95-.95s-.42-.95-.95-.95"/>
        <path class="cls-1" d="M38.08,19.69c-.62,0-1.13-.51-1.13-1.13,0-2.11-1.7-3.81-3.81-3.81-.62,0-1.13-.51-1.13-1.13s.51-1.13,1.13-1.13c3.35.02,6.05,2.76,6.05,6.08,0,.62-.49,1.13-1.11,1.13M47.2,28.29l-6.08-5c.82-1.39,1.31-2.99,1.31-4.72,0-5.13-4.17-9.27-9.27-9.27s-9.27,4.17-9.27,9.27,4.17,9.28,9.27,9.28c1.73,0,3.35-.49,4.71-1.31l5.02,6.11c1.13,1.39,3.25,1.49,4.53.21,1.29-1.29,1.19-3.4-.23-4.56"/>
      </g>

    </g>
  </g>
</svg>