<?xml version="1.0" encoding="UTF-8"?>
<svg id="Capa_2" data-name="Capa 2" xmlns="http://www.w3.org/2000/svg" xmlns:xlink="http://www.w3.org/1999/xlink" viewBox="0 0 221.97 472.28">
  <defs>
    <style>
      .cls-1 {
        fill: none;
      }

      .cls-2 {
        fill: #002fb0;
      }

      .cls-3 {
        clip-path: url(#clippath-1);
      }
    </style>
    <clipPath id="clippath-1">
      <rect class="cls-1" width="221.97" height="472.28"/>
    </clipPath>
  </defs>
  <g id="Capa_1-2" data-name="Capa 1">
    <g>
      <g>
        <path d="M131.39,436.47h2.83v3.7c-.46.15-.89.25-1.3.32-.41.06-.82.09-1.24.09-1.08,0-1.9-.32-2.47-.95-.57-.63-.85-1.54-.85-2.73s.33-2.05.99-2.7c.66-.64,1.57-.97,2.74-.97.73,0,1.44.15,2.12.44l-.5,1.21c-.52-.26-1.06-.39-1.63-.39-.65,0-1.18.22-1.57.66s-.59,1.03-.59,1.77.16,1.37.48,1.77c.32.41.78.61,1.38.61.32,0,.64-.03.96-.1v-1.49h-1.35v-1.26Z"/>
        <path d="M139.67,440.48l-.2-.7h-.08c-.16.25-.39.45-.68.59-.29.14-.63.21-1,.21-.64,0-1.12-.17-1.45-.52-.33-.34-.49-.84-.49-1.48v-3.56h1.49v3.19c0,.39.07.69.21.89.14.2.36.3.67.3.42,0,.72-.14.9-.42.19-.28.28-.74.28-1.38v-2.57h1.49v5.46h-1.14Z"/>
        <path d="M145.84,440.48l-.29-.74h-.04c-.25.32-.51.54-.77.66-.26.12-.61.18-1.04.18-.52,0-.94-.15-1.24-.45-.3-.3-.45-.73-.45-1.28s.2-1.01.61-1.28c.41-.28,1.02-.43,1.83-.46l.95-.03v-.24c0-.55-.28-.83-.85-.83-.44,0-.95.13-1.54.4l-.49-1.01c.63-.33,1.33-.49,2.09-.49s1.29.16,1.68.48.59.8.59,1.46v3.64h-1.04ZM145.4,437.95l-.58.02c-.43.01-.75.09-.97.23s-.32.36-.32.65c0,.42.24.63.72.63.34,0,.62-.1.83-.3.21-.2.31-.46.31-.79v-.45Z"/>
        <path d="M151.46,434.92c.2,0,.37.01.5.04l-.11,1.4c-.12-.03-.27-.05-.44-.05-.48,0-.85.12-1.11.37-.26.24-.4.59-.4,1.03v2.78h-1.49v-5.46h1.13l.22.92h.07c.17-.31.4-.55.69-.74.29-.19.6-.28.94-.28Z"/>
        <path d="M154.68,440.57c-.64,0-1.14-.25-1.51-.75-.37-.5-.55-1.19-.55-2.07s.19-1.59.56-2.09c.37-.5.89-.75,1.54-.75.69,0,1.21.27,1.57.8h.05c-.08-.41-.11-.77-.11-1.09v-1.75h1.49v7.6h-1.14l-.29-.71h-.06c-.34.54-.85.81-1.55.81ZM155.21,439.39c.38,0,.66-.11.84-.33.18-.22.27-.6.29-1.13v-.16c0-.59-.09-1.01-.27-1.26-.18-.25-.47-.38-.88-.38-.33,0-.59.14-.77.42-.18.28-.28.69-.28,1.23s.09.94.28,1.21c.19.27.45.4.8.4Z"/>
        <path d="M162.75,440.48l-.29-.74h-.04c-.25.32-.51.54-.77.66-.26.12-.61.18-1.04.18-.52,0-.94-.15-1.24-.45-.3-.3-.45-.73-.45-1.28s.2-1.01.61-1.28c.41-.28,1.02-.43,1.83-.46l.95-.03v-.24c0-.55-.28-.83-.85-.83-.44,0-.95.13-1.54.4l-.49-1.01c.63-.33,1.33-.49,2.09-.49s1.29.16,1.68.48.59.8.59,1.46v3.64h-1.04ZM162.31,437.95l-.58.02c-.43.01-.75.09-.97.23s-.32.36-.32.65c0,.42.24.63.72.63.34,0,.62-.1.83-.3.21-.2.31-.46.31-.79v-.45Z"/>
        <path d="M168.37,434.92c.2,0,.37.01.5.04l-.11,1.4c-.12-.03-.27-.05-.44-.05-.48,0-.85.12-1.11.37-.26.24-.4.59-.4,1.03v2.78h-1.49v-5.46h1.13l.22.92h.07c.17-.31.4-.55.69-.74.29-.19.6-.28.94-.28Z"/>
      </g>
      <g class="cls-3">
        <path class="cls-2" d="M188.73,438.82l.02,7.33h-3.84s-.02-7.34-.02-7.34l-7.33-.02v-3.82s7.34.02,7.34.02l-.02-7.33h3.8s.02,7.34.02,7.34l7.33.02.03,3.82-7.33-.02ZM195.75,445.83c4.91-4.91,4.86-12.87-.08-17.81-4.94-4.94-12.89-4.96-17.79-.06-4.91,4.91-4.9,12.87.04,17.81,4.94,4.94,12.93,4.96,17.84.06"/>
      </g>
      <rect class="cls-1" width="221.97" height="472.28"/>
    </g>
  </g>
</svg>