<?xml version="1.0" encoding="UTF-8"?>
<svg id="Capa_2" data-name="Capa 2" xmlns="http://www.w3.org/2000/svg" viewBox="0 0 48.27 48.55">
  <defs>
    <style>
      .cls-1 {
        fill: #002fb0;
      }
    </style>
  </defs>
  <g id="Capa_1-2" data-name="Capa 1">
    <g>
      <path class="cls-1" d="M26.69,18.72c-3.99-.94-8.01,1.52-8.97,5.5-.33,1.33-.28,2.73.15,4.05.08.25,0,.5-.17.67l-14.46,14.47c-1.11,1.11-1.11,2.93,0,4.04l.28.27c1.11,1.11,2.93,1.11,4.04,0l14.47-14.47c.19-.19.48-.24.73-.15,1.29.41,2.68.45,3.99.14,3.98-.96,6.44-4.97,5.5-8.97l-4.51,4.51c-.18.18-.44.24-.67.17l-3.61-.96c-.24-.07-.42-.25-.48-.48l-.98-3.63c-.06-.24.01-.48.17-.65l4.51-4.51Z"/>
      <path d="M26.56,42.12c-1.53-2.01-4.75-.93-4.75,1.6,0,2.31,2.77,3.5,4.45,1.94-1.44-.83-1.26-2.96.31-3.54"/>
      <path d="M43.76,30.78c6.11-.42,6.01-14.1-.3-14.1-.84,0-1.83-.07-2.57.16-.87.27-1.74.96-1.74,1.9v9.97c0,.61.36,1.12.86,1.47.31-.72,1.03-1.2,1.84-1.18.95,0,1.8.78,1.91,1.77"/>
      <path d="M6.31,16.68h-1.51c-6.4,0-6.4,14.11,0,14.11,1.33,0,2.52.15,3.55-.66.48-.37.76-.87.76-1.41v-9.97c0-1.3-1.52-2.08-2.8-2.08"/>
      <path d="M5.75,15.35c.44,0,.82-.01,1.27.06C9.05,4.76,20.29-1.49,30.43,2.45c5.59,2.17,9.7,7.07,10.82,12.96.44-.07.82-.06,1.26-.06C40.92,6.49,33.18,0,24.13,0S7.35,6.49,5.75,15.35"/>
      <path d="M26.39,43.7c6.13.19,12.03-2.63,14.19-8.46.51-1.4.78-2.9.77-4.5.45.06.82.05,1.28.05.1,5.94-3.36,10.8-8.88,12.93-2.22.86-4.73,1.25-7.36,1.13v-1.15Z"/>
    </g>
  </g>
</svg>