<?xml version="1.0" encoding="UTF-8"?>
<svg id="Capa_2" data-name="Capa 2" xmlns="http://www.w3.org/2000/svg" viewBox="0 0 72.9 24.96">
  <defs>
    <style>
      .cls-1 {
        fill: #002fb0;
      }

      .cls-2 {
        fill: #fff;
      }

      .cls-3 {
        fill: #7da1db;
      }
    </style>
  </defs>
  <g id="Capa_1-2" data-name="Capa 1">
    <g>
      <path class="cls-3" d="M60.42,24.96c-6.89,0-12.48-5.59-12.48-12.48S53.53,0,60.42,0s12.48,5.59,12.48,12.48-5.59,12.48-12.48,12.48"/>
      <rect class="cls-3" x="10.97" y="0" width="49.45" height="24.96"/>
      <path class="cls-1" d="M12.52,0c6.93-.03,12.56,5.56,12.59,12.44,0,3.26-1.24,6.26-3.32,8.49l4.49,3.99-13.69.03C5.66,24.96.03,19.4,0,12.51,0,5.62,5.59,0,12.52,0"/>
      <g>
        <path class="cls-2" d="M29.23,13.62h-2.05v-1.47h2.05v-2.02h1.48v2.02h2.05v1.47h-2.05v1.99h-1.48v-1.99Z"/>
        <path class="cls-2" d="M37.41,16.85v-8.04h2.18v8.04h-2.18Z"/>
        <path class="cls-2" d="M49.2,16.85h-2.85l-2.94-5.67h-.05c.07.89.1,1.57.1,2.04v3.62h-1.92v-8.04h2.84l2.93,5.59h.03c-.05-.81-.08-1.46-.08-1.95v-3.64h1.94v8.04Z"/>
        <path class="cls-2" d="M53.3,16.85h-2.14v-8.04h4.75v1.74h-2.61v1.53h2.41v1.74h-2.41v3.02Z"/>
        <path class="cls-2" d="M64.98,12.82c0,1.35-.33,2.38-1,3.09s-1.64,1.06-2.92,1.06-2.23-.35-2.9-1.06c-.67-.71-1.01-1.74-1.01-3.09s.33-2.36,1-3.07c.67-.71,1.64-1.06,2.92-1.06s2.25.35,2.91,1.05c.66.7.99,1.73.99,3.09ZM59.44,12.82c0,1.55.54,2.33,1.62,2.33.55,0,.96-.19,1.22-.57.27-.38.4-.97.4-1.77s-.13-1.4-.4-1.78-.67-.58-1.21-.58c-1.09,0-1.63.79-1.63,2.35Z"/>
      </g>
      <path class="cls-2" d="M11.62,4.74c.34-.34.79-.52,1.32-.52s.97.18,1.32.52c.34.34.53.79.53,1.31s-.18.97-.53,1.31c-.34.34-.79.52-1.32.52s-.98-.18-1.32-.52c-.34-.34-.53-.79-.53-1.31s.18-.97.53-1.31M16.18,19.7c0,.37-.29.63-.63.63h-5.06c-.37,0-.63-.26-.63-.63v-.55c0-.37.29-.63.63-.63l1.13-.1v-6.6l-1.24-.13c-.34-.03-.61-.29-.61-.63v-.5c0-.34.24-.6.55-.63l2.66-.45s.05-.03.16-.03h.68c.37,0,.63.26.63.63v8.35l1.11.11c.32,0,.58.29.58.63v.52h.03Z"/>
    </g>
  </g>
</svg>