<?xml version="1.0" encoding="UTF-8"?>
<svg id="Capa_2" data-name="Capa 2" xmlns="http://www.w3.org/2000/svg" viewBox="0 0 33.15 33.15">
  <defs>
    <style>
      .cls-1 {
        fill: #002fb0;
      }
    </style>
  </defs>
  <g id="Capa_1-2" data-name="Capa 1">
    <g>
      <path class="cls-1" d="M16.58,4.74c-3.92,0-7.1,3.18-7.1,7.1s3.18,7.1,7.1,7.1,7.1-3.18,7.1-7.1-3.18-7.1-7.1-7.1"/>
      <path class="cls-1" d="M26.91,26.31c-.78-2.54-2.95-4.46-5.62-4.91-.17-.03-.35-.03-.52-.04-.22-.02-.43-.05-.65-.05h-7.1c-.22,0-.44.03-.65.05-.17.02-.35.01-.52.04-2.67.44-4.83,2.37-5.62,4.91-2.4-2.54-3.87-5.97-3.87-9.74,0-.53.03-1.05.09-1.57.02-.17.05-.34.08-.51.05-.34.1-.68.18-1.01C3.9,8.12,8.12,3.9,13.49,2.71c.33-.07.67-.13,1.01-.18.17-.03.34-.06.51-.08.52-.06,1.04-.09,1.57-.09s1.05.03,1.57.09c.17.02.34.05.51.08.34.05.68.1,1.01.18,5.36,1.19,9.58,5.41,10.77,10.77.07.33.13.67.18,1.01.02.17.06.33.08.51.06.51.09,1.04.09,1.57,0,3.77-1.47,7.2-3.87,9.74M33.04,14.74c-.02-.19-.06-.38-.09-.57-.06-.4-.12-.81-.21-1.2-.02-.07-.02-.15-.04-.22,0-.03-.03-.06-.04-.09C31.21,6.66,26.49,1.94,20.49.48c-.03-.01-.06-.03-.09-.04-.07-.02-.15-.02-.22-.04-.4-.09-.8-.15-1.2-.21-.19-.03-.38-.07-.57-.09-.6-.07-1.21-.11-1.83-.11s-1.23.04-1.83.11c-.19.02-.38.06-.57.09-.4.06-.81.12-1.2.21-.07.01-.15.02-.22.04-.03,0-.06.03-.09.04C6.66,1.94,1.94,6.66.48,12.66c0,.03-.03.05-.04.09-.02.07-.02.15-.04.22-.09.39-.15.8-.21,1.2-.03.19-.07.38-.09.57-.07.6-.11,1.21-.11,1.83,0,9.15,7.42,16.57,16.57,16.57s16.57-7.42,16.57-16.57c0-.62-.04-1.23-.11-1.83"/>
    </g>
  </g>
</svg>