<?xml version="1.0" encoding="UTF-8"?>
<svg id="Capa_2" xmlns="http://www.w3.org/2000/svg" xmlns:xlink="http://www.w3.org/1999/xlink" version="1.1" viewBox="0 0 16.4 11.8">
  <!-- Generator: Adobe Illustrator 29.5.0, SVG Export Plug-In . SVG Version: 2.1.0 Build 137)  -->
  <defs>
    <style>
      .st0 {
        fill: none;
      }

      .st1 {
        isolation: isolate;
      }

      .st2 {
        clip-path: url(#clippath);
      }
    </style>
    <clipPath id="clippath">
      <rect class="st0" x="-32921.9" y="-32620.1" width="65535" height="65535"/>
    </clipPath>
  </defs>
  <g id="Capa_1-2">
    <g class="st1">
      <g class="st2">
        <path d="M6.1,10.9c-.2,0-.3-.3-.3-.5,0-.2.3-.3.5-.3,1.7.4,3.4.3,5-.5,1.5-.7,2.9-2,4.2-3.8-.3-.4-.6-.9-.9-1.2-.4-.4-.8-.8-1.2-1.2-.2-.1-.2-.4,0-.5.1-.2.4-.2.5,0,.4.4.9.8,1.3,1.3.4.5.8,1,1.2,1.5,0,.1,0,.3,0,.4-1.3,2-2.9,3.5-4.6,4.3-1.8.9-3.7,1-5.5.5M6.2,7.3l3.3-3.3c-.1-.1-.3-.2-.5-.3-.3-.1-.6-.2-.9-.2-.7,0-1.3.3-1.7.7-.4.4-.7,1-.7,1.7s.2,1,.4,1.4M3.7,9.8c-.6-.4-1.2-.9-1.7-1.4-.7-.7-1.3-1.4-1.9-2.3,0-.1,0-.3,0-.4C1.7,3.3,3.7,1.7,5.7,1c2.1-.7,4.2-.5,6.2.6l1.4-1.4c.1-.2.4-.2.5,0s.1.4,0,.5l-3.5,3.5-3.6,3.6c.4.3.9.4,1.4.4s1.3-.3,1.7-.7c.4-.4.7-1,.7-1.7h0c0-.3.1-.5.4-.5.2,0,.4.2.4.4h0c0,1-.4,1.8-.9,2.4-.6.6-1.4.9-2.2.9s-1.4-.2-1.9-.7l-3.2,3.2c-.2.1-.4.1-.5,0s-.2-.4,0-.5l1.3-1.3h0ZM11.4,2.2c-1.8-.9-3.6-1-5.4-.4-1.8.6-3.6,2-5.1,4.1.5.8,1.1,1.4,1.6,2,.6.6,1.2,1,1.8,1.4l1.4-1.4c-.4-.5-.7-1.2-.7-2s.3-1.7.9-2.2c.6-.6,1.4-.9,2.2-.9s.8,0,1.2.2c.3.1.5.3.7.4l1.2-1.2h0Z"/>
      </g>
    </g>
  </g>
</svg>