<?xml version="1.0" encoding="UTF-8"?>
<svg xmlns="http://www.w3.org/2000/svg" viewBox="19 0 35 38">
  <defs>
    <style>
      .cls-1 {
       transform: scale(0.9);
      }
    </style>
  </defs>
  <path class="cls-1" fill="#2c4391" d="M30.9,14.86c0,1.97,1.57,3.55,3.55,3.55s3.55-1.57,3.55-3.55-1.57-3.55-3.55-3.55c-1.94.04-3.55,1.61-3.55,3.55M33.83,22.94c-.29.37-.26.92.11,1.21.37.29.91.26,1.21-.11l9.29-11.19c.29-.37.26-.92-.11-1.21-.37-.29-.91-.26-1.21.11l-9.29,11.19ZM43.81,17.31c-1.94,0-3.55,1.57-3.55,3.55s1.57,3.55,3.55,3.55,3.55-1.57,3.55-3.55-1.61-3.55-3.55-3.55M22.6,14.02c-.77-1.21-.37-2.49.95-3,1.28-.51,2.52-.99,3.8-1.46.26-.11.37-.22.37-.51.04-1.35.11-2.71.22-4.06.11-1.46,1.13-2.16,2.93-1.76.91.26,2.19.58,3.44.95.33.11.55.04.77-.26.8-1.02,1.65-2.05,2.45-3.07.92-1.13,2.3-1.13,3.22,0,.84,1.02,1.68,2.05,2.52,3.11.18.22.33.29.62.22,1.28-.37,2.6-.73,3.88-1.06,1.39-.37,2.49.44,2.56,1.87.07,1.35.15,2.67.22,4.02,0,.29.11.44.36.51,1.24.44,2.45.91,3.69,1.39,1.46.55,1.9,1.83,1.06,3.11-.69,1.1-1.43,2.2-2.16,3.29-.18.26-.18.4,0,.66.77,1.1,1.5,2.23,2.23,3.37.77,1.21.37,2.49-.99,3.04-1.24.48-2.49.95-3.73,1.43-.26.11-.4.22-.4.55-.04,1.35-.15,2.71-.22,4.06-.07,1.39-1.21,2.2-2.56,1.83-1.32-.37-2.63-.7-3.95-1.06-.26-.07-.4,0-.55.18-.84,1.06-1.68,2.08-2.52,3.15-.91,1.13-2.27,1.13-3.22,0-.84-1.02-1.72-2.08-2.52-3.15-.18-.22-.33-.26-.59-.18-1.28.37-2.56.66-3.8,1.06-1.57.51-2.74-.66-2.71-1.98,0-1.28-.15-2.6-.18-3.88,0-.29-.11-.4-.37-.51-1.28-.48-2.56-.95-3.84-1.46-1.24-.48-1.68-1.79-.99-2.89.73-1.17,1.46-2.3,2.23-3.48.18-.26.18-.44,0-.66-.77-1.1-1.5-2.23-2.23-3.36M42.75,19.8c-.59.58-.59,1.5,0,2.08.59.59,1.5.59,2.08,0,.58-.59.58-1.5,0-2.08-.55-.55-1.5-.55-2.08,0M33.43,15.92c-.59-.58-.59-1.5,0-2.08.58-.58,1.5-.58,2.08,0s.58,1.5,0,2.08c-.58.59-1.54.59-2.08,0"/>
</svg>
