<?xml version="1.0" encoding="UTF-8"?>
<svg id="Capa_2" data-name="Capa 2" xmlns="http://www.w3.org/2000/svg" viewBox="0 0 28.33 24.6">
  <defs>
    <style>
      .cls-1 {
        fill: #575c5c;
      }

      .cls-2 {
        fill: #fff;
      }

      .cls-3 {
        fill: #e22021;
      }

      .cls-4 {
        fill: #bbbdc5;
      }

      .cls-5 {
        fill: #dcdcdd;
      }
    </style>
  </defs>
  <g id="Capa_1-2" data-name="Capa 1">
    <g>
      <path class="cls-4" d="M23.15,4.39V1.31c0-.72.59-1.31,1.31-1.31s1.31.59,1.31,1.31v3.08c0,.73-.59,1.31-1.31,1.31s-1.31-.59-1.31-1.31"/>
      <path class="cls-4" d="M9.93,5.71c.72,0,1.31-.59,1.31-1.31V1.31C11.24.59,10.65,0,9.93,0s-1.31.59-1.31,1.31v3.08c0,.72.59,1.31,1.31,1.31"/>
      <path class="cls-3" d="M26.94,2.85h-.51v1.54c.04,1.08-.81,1.99-1.89,2.03-1.08.04-1.99-.81-2.03-1.89,0-.05,0-.09,0-.14v-1.54h-3.34v1.54c0,1.08-.88,1.96-1.96,1.96s-1.96-.88-1.96-1.96v-1.54h-3.34v1.54c.04,1.08-.81,1.99-1.89,2.03-1.08.04-1.99-.81-2.03-1.89,0-.05,0-.09,0-.14v-1.54h-.51c-.77,0-1.39.62-1.39,1.39v3.45h22.26v-3.45c0-.77-.62-1.39-1.39-1.39"/>
      <path class="cls-4" d="M17.2,5.71c.72,0,1.31-.59,1.31-1.31V1.31C18.51.59,17.92,0,17.2,0s-1.31.59-1.31,1.31v3.08c0,.72.59,1.31,1.31,1.31"/>
      <path class="cls-5" d="M8.29,20.09c0,.28.23.51.52.51h1.39c.28,0,.51-.23.51-.51v-1.4c0-.28-.23-.51-.51-.52h-1.39c-.28,0-.51.23-.52.52v1.4ZM8.29,16c0,.28.23.52.52.52h1.39c.28,0,.51-.23.51-.52v-1.39c0-.28-.23-.51-.51-.51h-1.39c-.28,0-.52.23-.52.51v1.39ZM13.42,20.09c0,.28.23.51.52.51h1.39c.28,0,.52-.23.52-.51v-1.4c0-.28-.23-.52-.52-.52h-1.39c-.28,0-.51.23-.52.52v1.4ZM13.42,16c0,.28.23.51.52.52h1.39c.28,0,.52-.23.52-.52v-1.39c0-.28-.23-.51-.52-.51h-1.39c-.28,0-.51.23-.52.51v1.39ZM13.42,11.92c0,.28.23.52.52.52h1.39c.28,0,.52-.23.52-.52v-1.39c0-.28-.23-.51-.52-.51h-1.39c-.28,0-.51.23-.52.51v1.39ZM18.55,20.09c0,.29.23.52.52.51h1.4c.28,0,.51-.23.52-.51v-1.4c0-.28-.23-.51-.52-.52h-1.39c-.28,0-.52.23-.52.52v1.4ZM18.55,16c0,.29.23.52.52.52h1.4c.28,0,.51-.23.52-.52v-1.39c0-.28-.23-.51-.52-.51h-1.39c-.28,0-.52.23-.52.51v1.39ZM18.55,11.92c0,.28.23.52.52.52h1.39c.28,0,.51-.23.51-.52v-1.39c0-.28-.23-.51-.51-.51h-1.38c-.28,0-.52.23-.52.51v1.39ZM23.68,16c0,.28.23.52.51.52h1.39c.28,0,.51-.23.51-.52v-1.39c0-.28-.23-.51-.51-.51h-1.39c-.28,0-.51.23-.51.51v1.39ZM23.68,11.92c0,.28.23.52.51.52h1.39c.28,0,.51-.23.51-.52v-1.39c0-.28-.23-.51-.51-.51h-1.39c-.28,0-.51.23-.51.51v1.39ZM6.07,8.35h22.26v12.52c0,.77-.62,1.39-1.39,1.39H7.46c-.77,0-1.39-.62-1.39-1.39v-12.52Z"/>
      <path class="cls-2" d="M6.06,23.67c-1.37,0-2.66-.53-3.63-1.5-.97-.97-1.5-2.26-1.5-3.63s.53-2.66,1.5-3.63,2.26-1.5,3.63-1.5,2.66.53,3.63,1.5c.97.97,1.5,2.26,1.5,3.63s-.53,2.66-1.5,3.63c-.97.97-2.26,1.5-3.63,1.5"/>
      <path class="cls-2" d="M6.07,12.47c-1.62,0-3.14.63-4.29,1.78-1.15,1.14-1.78,2.67-1.78,4.29s.63,3.14,1.78,4.29c1.14,1.15,2.67,1.78,4.29,1.78s3.14-.63,4.29-1.78c1.15-1.14,1.78-2.67,1.78-4.29s-.63-3.14-1.78-4.29c-1.15-1.15-2.67-1.78-4.29-1.78M6.07,14.34c1.12,0,2.17.44,2.97,1.23s1.23,1.85,1.23,2.97-.44,2.18-1.23,2.97c-.79.79-1.85,1.23-2.97,1.23s-2.17-.44-2.97-1.23-1.23-1.85-1.23-2.97.44-2.17,1.23-2.97,1.85-1.23,2.97-1.23"/>
      <path class="cls-3" d="M9.03,21.5c-.79.79-1.85,1.23-2.97,1.23s-2.17-.44-2.97-1.23-1.23-1.85-1.23-2.97.44-2.17,1.23-2.97c.79-.79,1.85-1.23,2.97-1.23s2.17.44,2.97,1.23c.79.79,1.23,1.85,1.23,2.97s-.44,2.18-1.23,2.97M11.02,16.44c-.27-.64-.66-1.21-1.15-1.71-.49-.49-1.07-.88-1.71-1.15-.66-.28-1.37-.42-2.09-.42s-1.43.14-2.09.42c-.64.27-1.21.66-1.71,1.15-.49.49-.88,1.07-1.15,1.71-.28.66-.42,1.37-.42,2.09s.14,1.43.42,2.09c.27.64.66,1.21,1.15,1.71.49.49,1.07.88,1.71,1.15.66.28,1.37.42,2.09.42s1.43-.14,2.09-.42c.64-.27,1.21-.66,1.71-1.15.49-.49.88-1.07,1.15-1.71.28-.66.42-1.37.42-2.09s-.14-1.43-.42-2.09"/>
      <path class="cls-1" d="M8.13,19.14h-4.13c-.33,0-.61-.27-.61-.61s.27-.61.61-.61h4.13c.33,0,.61.27.61.61s-.27.61-.61.61"/>
    </g>
  </g>
</svg>