<?xml version="1.0" encoding="UTF-8"?>
<svg id="Capa_2" data-name="Capa 2" xmlns="http://www.w3.org/2000/svg" viewBox="0 0 25.27 25.11">
  <defs>
    <style>
      .cls-1 {
        fill: #002fb0;
      }
    </style>
  </defs>
  <g id="Capa_1-2" data-name="Capa 1">
    <path class="cls-1"  transform="rotate(180 12.64 12.56)"  d="M13.53,18.46c-.49.49-1.29.49-1.79,0l-5.05-5.02c-.24-.24-.37-.55-.37-.89s.13-.65.37-.89l5.05-5.02c.49-.49,1.29-.49,1.79,0,.49.49.49,1.28,0,1.78l-2.9,2.88h7.06c.7,0,1.26.56,1.26,1.26s-.56,1.26-1.26,1.26h-7.06l2.9,2.88c.49.49.49,1.28,0,1.78M12.64,25.11c6.98,0,12.64-5.62,12.64-12.55S19.62,0,12.64,0,0,5.62,0,12.56s5.66,12.55,12.64,12.55"/>
  </g>
</svg>