<?xml version="1.0" encoding="UTF-8"?>
<svg id="Capa_2" data-name="Capa 2" xmlns="http://www.w3.org/2000/svg" xmlns:xlink="http://www.w3.org/1999/xlink" viewBox="0 0 221.97 472.28">
  <defs>
    <style>
      .cls-1 {
        fill: none;
      }

      .cls-2 {
        fill: #002fb0;
      }

      .cls-3 {
        clip-path: url(#clippath);
      }
    </style>
    <clipPath id="clippath">
      <rect class="cls-1" width="221.97" height="472.28"/>
    </clipPath>
  </defs>
  <g id="Capa_1-2" data-name="Capa 1">
    <g>
      <g>
        <path d="M55.59,433.34h1.53l-2.43,7.14h-1.65l-2.42-7.14h1.53l1.34,4.25c.08.25.15.54.23.88.08.33.13.57.15.7.04-.3.16-.82.37-1.57l1.35-4.25Z"/>
        <path d="M62.86,437.74c0,.89-.23,1.58-.7,2.08s-1.12.75-1.96.75c-.52,0-.99-.12-1.39-.34-.4-.23-.71-.56-.92-.99s-.32-.93-.32-1.5c0-.89.23-1.58.7-2.08s1.12-.74,1.96-.74c.52,0,.99.11,1.39.34s.71.55.92.98.32.93.32,1.5ZM59.09,437.74c0,.54.09.95.27,1.23.18.28.47.42.87.42s.68-.14.86-.41c.17-.27.26-.68.26-1.23s-.09-.95-.26-1.22-.46-.41-.86-.41-.68.13-.86.4c-.18.27-.26.67-.26,1.22Z"/>
        <path d="M65.58,440.48h-1.49v-7.6h1.49v7.6Z"/>
        <path d="M68.44,440.48l-2.08-5.46h1.56l1.05,3.11c.12.39.19.77.22,1.12h.03c.02-.31.09-.69.22-1.12l1.05-3.11h1.56l-2.08,5.46h-1.53Z"/>
        <path d="M75.3,440.57c-.88,0-1.57-.24-2.06-.73s-.74-1.17-.74-2.06.23-1.62.69-2.12c.46-.5,1.09-.75,1.9-.75s1.37.22,1.8.66.64,1.05.64,1.82v.72h-3.52c.02.42.14.75.38.99s.56.36.99.36c.33,0,.64-.03.93-.1s.6-.18.92-.33v1.15c-.26.13-.54.23-.83.29-.3.06-.66.1-1.08.1ZM75.09,435.98c-.32,0-.56.1-.74.3-.18.2-.28.48-.31.85h2.09c0-.37-.1-.65-.29-.85-.19-.2-.44-.3-.75-.3Z"/>
        <path d="M81.79,434.92c.2,0,.37.01.5.04l-.11,1.4c-.12-.03-.27-.05-.44-.05-.48,0-.85.12-1.11.37-.26.24-.4.59-.4,1.03v2.78h-1.49v-5.46h1.13l.22.92h.07c.17-.31.4-.55.69-.74.29-.19.6-.28.94-.28Z"/>
      </g>
      <g class="cls-3">
        <path class="cls-2" d="M35.7,442.82c-.49.49-1.29.49-1.79,0l-5.05-5.02c-.24-.24-.37-.55-.37-.89s.13-.65.37-.89l5.05-5.02c.49-.49,1.29-.49,1.79,0,.49.49.49,1.28,0,1.78l-2.9,2.88h7.06c.7,0,1.26.56,1.26,1.26s-.56,1.26-1.26,1.26h-7.06l2.9,2.88c.49.49.49,1.28,0,1.78M34.81,449.46c6.98,0,12.64-5.62,12.64-12.55s-5.66-12.56-12.64-12.56-12.64,5.62-12.64,12.56,5.66,12.55,12.64,12.55"/>
      </g>
      <rect class="cls-1" width="221.97" height="472.28"/>
    </g>
  </g>
</svg>