<?xml version="1.0" encoding="UTF-8" standalone="no"?>
<!-- Generator: Adobe Illustrator 25.4.1, SVG Export Plug-In . SVG Version: 6.00 Build 0)  -->

<svg
   version="1.1"
   id="Capa_1"
   x="0px"
   y="0px"
   viewBox="0 0 35.788218 41.500001"
   xml:space="preserve"
   sodipodi:docname="f7ff132a06019688ea2cfdd93e8db56c.svg"
   width="35.788219"
   height="41.5"
   xmlns:inkscape="http://www.inkscape.org/namespaces/inkscape"
   xmlns:sodipodi="http://sodipodi.sourceforge.net/DTD/sodipodi-0.dtd"
   xmlns="http://www.w3.org/2000/svg"
   xmlns:svg="http://www.w3.org/2000/svg"><defs
   id="defs15" /><sodipodi:namedview
   id="namedview13"
   pagecolor="#ffffff"
   bordercolor="#666666"
   borderopacity="1.0"
   inkscape:pageshadow="2"
   inkscape:pageopacity="0.0"
   inkscape:pagecheckerboard="0" />
<style
   type="text/css"
   id="style2">
	.st0{fill:#222221;}
	.st1{fill:#0033AB;}
	.st2{fill:#FFFFFF;}
	.st3{font-family:'OpenSans-Bold';}
	.st4{font-size:7.9648px;}
</style>
<path
   class="st0"
   d="m 32.9,22.3 h -2.1 c -1,0 -1.8,0.8 -1.8,1.8 v 5.8 c 0,0.6 -0.5,1.1 -1.1,1.1 h -4.3 c -1.1,0 -2.1,0.9 -2.1,2.1 L 21.6,38.9 9.3,37.8 V 29.5 C 9.3,28.6 8.9,27.7 8.2,27.1 4.9,24.3 2.9,19.9 2.9,15.7 2.9,8.5 8.8,2.6 16,2.6 c 6.8,0 12.4,5.1 13,11.9 0,0.6 0.2,1.1 0.5,1.7 l 3.7,5.6 c 0,0.1 0,0.2 0,0.3 -0.2,0.2 -0.3,0.2 -0.3,0.2 m 2.4,-1.8 -3.6,-5.6 C 31.6,14.8 31.6,14.6 31.5,14.4 30.8,6.2 24,0 15.8,0 7.1,0 0,7.1 0,15.8 c 0,5 2.4,10.1 6.3,13.4 0.1,0.1 0.2,0.3 0.2,0.4 v 8.2 c 0,1.4 1,2.5 2.4,2.6 l 12.4,1.1 h 0.2 c 0.7,0 1.3,-0.3 1.7,-0.7 0.5,-0.5 0.8,-1.2 0.8,-1.9 v -5.1 h 3.7 c 2.1,0 3.8,-1.7 3.8,-3.8 v -4.9 h 1.2 c 1.1,0 2.1,-0.6 2.6,-1.5 0.7,-1.1 0.6,-2.2 0,-3.1"
   id="path4" />
<path
   class="st0"
   d="m 25.3,14.7 c 0.5,0 0.9,-0.4 0.9,-0.9 0,-0.5 -0.4,-0.9 -0.9,-0.9 h -1.9 c 0,-1.4 -1.2,-2.7 -2.7,-2.7 V 8.3 c 0,-0.5 -0.4,-0.9 -0.9,-0.9 -0.5,0 -0.9,0.4 -0.9,0.9 v 1.9 H 17.2 V 8.3 c 0,-0.5 -0.4,-0.9 -0.9,-0.9 -0.5,0 -0.9,0.4 -0.9,0.9 v 1.9 H 13.7 V 8.3 c 0,-0.5 -0.4,-0.9 -0.9,-0.9 -0.5,0 -0.9,0.4 -0.9,0.9 v 1.9 c -1.4,0 -2.7,1.2 -2.7,2.7 h -2 c -0.5,0 -0.9,0.4 -0.9,0.9 0,0.5 0.4,0.9 0.9,0.9 h 1.9 v 1.7 H 7.2 c -0.5,0 -0.9,0.4 -0.9,0.9 0,0.5 0.4,0.9 0.9,0.9 h 1.9 v 1.7 H 7.2 c -0.5,0 -0.9,0.4 -0.9,0.9 0,0.5 0.4,0.9 0.9,0.9 h 1.9 c 0,1.4 1.2,2.7 2.7,2.7 v 1.9 c 0,0.5 0.4,0.9 0.9,0.9 0.5,0 0.9,-0.4 0.9,-0.9 v -1.9 h 1.7 v 1.9 c 0,0.5 0.4,0.9 0.9,0.9 0.5,0 0.9,-0.4 0.9,-0.9 v -1.9 h 1.7 v 1.9 c 0,0.5 0.4,0.9 0.9,0.9 0.5,0 0.9,-0.4 0.9,-0.9 v -1.9 c 1.4,0 2.7,-1.2 2.7,-2.7 h 1.9 c 0.5,0 0.9,-0.4 0.9,-0.9 0,-0.5 -0.4,-0.9 -0.9,-0.9 h -1.9 v -1.7 h 1.9 c 0.5,0 0.9,-0.4 0.9,-0.9 0,-0.5 -0.4,-0.9 -0.9,-0.9 h -1.9 v -1.7 z"
   id="path6" />
<path
   class="st1"
   d="m 20.8,22.6 h -8.9 c -0.5,0 -0.8,-0.4 -0.8,-0.8 v -8.9 c 0,-0.5 0.4,-0.8 0.8,-0.8 h 8.8 c 0.5,0 0.8,0.4 0.8,0.8 v 8.8 c 0.1,0.5 -0.3,0.9 -0.7,0.9"
   id="path8" />
<text
   class="st2 st3 st4"
   id="text10"
   x="12.478"
   y="19.928101">Ai</text>
</svg>
