<?xml version="1.0" encoding="UTF-8" standalone="no"?>
<!-- Generator: Adobe Illustrator 25.4.1, SVG Export Plug-In . SVG Version: 6.00 Build 0)  -->

<svg
   version="1.1"
   id="Capa_1"
   x="0px"
   y="0px"
   viewBox="0 0 19.799999 19.8"
   xml:space="preserve"
   sodipodi:docname="32292568a6db7f6c4cf210dafc8dc82b.svg"
   width="19.799999"
   height="19.799999"
   xmlns:inkscape="http://www.inkscape.org/namespaces/inkscape"
   xmlns:sodipodi="http://sodipodi.sourceforge.net/DTD/sodipodi-0.dtd"
   xmlns="http://www.w3.org/2000/svg"
   xmlns:svg="http://www.w3.org/2000/svg"><defs
   id="defs53" /><sodipodi:namedview
   id="namedview51"
   pagecolor="#ffffff"
   bordercolor="#666666"
   borderopacity="1.0"
   inkscape:pageshadow="2"
   inkscape:pageopacity="0.0"
   inkscape:pagecheckerboard="0" />
<style
   type="text/css"
   id="style2">
	.st0{fill:#FFFFFF;}
</style>
<g
   id="g12"
   transform="translate(-411,-287.4)">
	<path
   class="st0"
   d="M 429.1,305.6 H 412.6 V 294 h 16.5 z m 0.4,-16.2 h -1.1 v 1 c 0,1 -0.8,1.8 -1.8,1.8 -1,0 -1.8,-0.8 -1.8,-1.8 v -1 h -2.2 v 1 c 0,1 -0.8,1.8 -1.8,1.8 -1,0 -1.8,-0.8 -1.8,-1.8 v -1 h -2.2 v 1 c 0,1 -0.8,1.8 -1.8,1.8 -1,0 -1.8,-0.8 -1.8,-1.8 v -1 h -1 c -0.7,0 -1.2,0.5 -1.2,1.2 V 306 c 0,0.7 0.5,1.2 1.2,1.2 h 17.4 c 0.7,0 1.2,-0.5 1.2,-1.2 v -15.4 c -0.1,-0.7 -0.6,-1.2 -1.3,-1.2"
   id="path4" />
	<path
   class="st0"
   d="m 415,291.3 c 0.5,0 1,-0.5 1,-1 v -1.9 c 0,-0.5 -0.5,-1 -1,-1 -0.5,0 -1,0.5 -1,1 v 2 c 0,0.5 0.5,0.9 1,0.9"
   id="path6" />
	<path
   class="st0"
   d="m 420.8,291.3 c 0.5,0 1,-0.5 1,-1 v -1.9 c 0,-0.5 -0.5,-1 -1,-1 -0.5,0 -1,0.5 -1,1 v 2 c 0,0.5 0.5,0.9 1,0.9"
   id="path8" />
	<path
   class="st0"
   d="m 426.6,291.3 c 0.5,0 1,-0.5 1,-1 v -1.9 c 0,-0.5 -0.5,-1 -1,-1 -0.5,0 -1,0.5 -1,1 v 2 c 0,0.5 0.5,0.9 1,0.9"
   id="path10" />
</g>
<rect
   x="5.7999878"
   y="7.4999938"
   class="st0"
   width="1.9"
   height="1.7"
   id="rect14" />
<rect
   x="8.8999939"
   y="7.4999938"
   class="st0"
   width="1.9"
   height="1.7"
   id="rect16" />
<rect
   x="12"
   y="7.4999938"
   class="st0"
   width="1.9"
   height="1.7"
   id="rect18" />
<rect
   x="2.6000061"
   y="10.200006"
   class="st0"
   width="1.9"
   height="1.7"
   id="rect20" />
<rect
   x="5.7999878"
   y="10.200006"
   class="st0"
   width="1.9"
   height="1.7"
   id="rect22" />
<rect
   x="8.8999939"
   y="10.200006"
   class="st0"
   width="1.9"
   height="1.7"
   id="rect24" />
<rect
   x="12"
   y="10.200006"
   class="st0"
   width="1.9"
   height="1.7"
   id="rect26" />
<rect
   x="2.6000061"
   y="12.899988"
   class="st0"
   width="1.9"
   height="1.7"
   id="rect28" />
<rect
   x="5.7999878"
   y="12.899988"
   class="st0"
   width="1.9"
   height="1.7"
   id="rect30" />
<rect
   x="8.8999939"
   y="12.899988"
   class="st0"
   width="1.9"
   height="1.7"
   id="rect32" />
<rect
   x="12"
   y="12.899988"
   class="st0"
   width="1.9"
   height="1.7"
   id="rect34" />
<rect
   x="2.6000061"
   y="15.6"
   class="st0"
   width="1.9"
   height="1.7"
   id="rect36" />
<rect
   x="5.7999878"
   y="15.6"
   class="st0"
   width="1.9"
   height="1.7"
   id="rect38" />
<rect
   x="8.8999939"
   y="15.6"
   class="st0"
   width="1.9"
   height="1.7"
   id="rect40" />
<rect
   x="12"
   y="15.6"
   class="st0"
   width="1.9"
   height="1.7"
   id="rect42" />
<rect
   x="15.100006"
   y="7.4999938"
   class="st0"
   width="1.9"
   height="1.7"
   id="rect44" />
<rect
   x="15.100006"
   y="10.200006"
   class="st0"
   width="1.9"
   height="1.7"
   id="rect46" />
<rect
   x="15.100006"
   y="12.899988"
   class="st0"
   width="1.9"
   height="1.7"
   id="rect48" />
</svg>
