<?xml version="1.0" encoding="UTF-8" standalone="no"?>
<!-- Generator: Adobe Illustrator 25.4.1, SVG Export Plug-In . SVG Version: 6.00 Build 0)  -->

<svg
   version="1.1"
   id="Capa_1"
   x="0px"
   y="0px"
   viewBox="0 0 46.4 42.8"
   xml:space="preserve"
   sodipodi:docname="db88d1b719291ca7ce3a657709aa308e.svg"
   width="46.400002"
   height="42.799999"
   xmlns:inkscape="http://www.inkscape.org/namespaces/inkscape"
   xmlns:sodipodi="http://sodipodi.sourceforge.net/DTD/sodipodi-0.dtd"
   xmlns="http://www.w3.org/2000/svg"
   xmlns:svg="http://www.w3.org/2000/svg"><defs
   id="defs29" /><sodipodi:namedview
   id="namedview27"
   pagecolor="#ffffff"
   bordercolor="#666666"
   borderopacity="1.0"
   inkscape:pageshadow="2"
   inkscape:pageopacity="0.0"
   inkscape:pagecheckerboard="0" />
<style
   type="text/css"
   id="style2">
	.st0{fill:#222221;}
	.st1{fill:#0033AB;}
</style>
<path
   class="st0"
   d="m 13.1,14.4 c -0.4,-0.3 -1,-0.2 -1.3,0.2 L 9.2,17.9 7.9,16.6 c -0.4,-0.4 -1,-0.4 -1.3,0 -0.4,0.4 -0.4,1 0,1.3 L 8.7,20 c 0,0 0,0 0,0 0,0 0,0 0.1,0.1 0,0 0.1,0.1 0.2,0.1 0,0 0.1,0 0.1,0.1 0.1,0 0.2,0.1 0.3,0.1 v 0 0 c 0.1,0 0.2,0 0.3,-0.1 0,0 0,0 0,0 0.1,0 0.2,-0.1 0.3,-0.2 0,0 0,0 0,0 0,0 0,0 0,0 0,0 0,0 0.1,-0.1 l 3.3,-4.2 c 0.2,-0.5 0.1,-1.1 -0.3,-1.4"
   id="path4" />
<path
   class="st0"
   d="m 13.1,22.6 c -0.4,-0.3 -1,-0.2 -1.3,0.2 L 9.2,26.1 7.9,24.8 c -0.4,-0.4 -1,-0.4 -1.3,0 -0.4,0.4 -0.4,1 0,1.3 l 2.1,2.1 c 0,0 0,0 0,0 0,0 0,0 0.1,0.1 0,0 0.1,0.1 0.2,0.1 0,0 0.1,0 0.1,0.1 0.1,0 0.2,0.1 0.3,0.1 v 0 0 c 0.1,0 0.2,0 0.3,-0.1 0,0 0,0 0,0 0.1,0 0.2,-0.1 0.3,-0.2 0,0 0,0 0,0 0,0 0,0 0,0 0,0 0,0 0.1,-0.1 L 13.4,24 c 0.2,-0.5 0.1,-1.1 -0.3,-1.4"
   id="path6" />
<path
   class="st0"
   d="m 13.1,30.8 c -0.4,-0.3 -1,-0.2 -1.3,0.2 L 9.2,34.3 7.9,33 c -0.4,-0.4 -1,-0.4 -1.3,0 -0.4,0.4 -0.4,1 0,1.3 l 2.1,2.1 c 0,0 0,0 0,0 0,0 0,0 0.1,0.1 0,0 0.1,0.1 0.2,0.1 0,0 0.1,0 0.1,0.1 0.1,0 0.2,0.1 0.3,0.1 v 0 0 c 0.1,0 0.2,0 0.3,-0.1 0,0 0,0 0,0 0.1,0 0.2,-0.1 0.3,-0.2 0,0 0,0 0,0 0,0 0,0 0,0 0,0 0,0 0.1,-0.1 l 3.3,-4.2 c 0.2,-0.4 0.1,-1 -0.3,-1.4"
   id="path8" />
<path
   class="st0"
   d="m 22.4,16.3 h -6 c -0.5,0 -0.9,0.4 -0.9,0.9 0,0.5 0.4,0.9 0.9,0.9 H 22 c 0,-0.6 0.2,-1.2 0.4,-1.8"
   id="path10" />
<path
   class="st0"
   d="m 22.2,24.5 h -5.8 c -0.5,0 -0.9,0.4 -0.9,0.9 0,0.5 0.4,0.9 0.9,0.9 h 6.4 c -0.2,-0.5 -0.4,-1.2 -0.6,-1.8"
   id="path12" />
<path
   class="st0"
   d="M 26.5,32.7 H 16.4 c -0.5,0 -0.9,0.4 -0.9,0.9 0,0.5 0.4,0.9 0.9,0.9 h 10.1 c 0.5,0 0.9,-0.4 0.9,-0.9 0.1,-0.5 -0.4,-0.9 -0.9,-0.9"
   id="path14" />
<path
   class="st0"
   d="m 22.8,5.6 c 0,0.6 -0.5,1.1 -1.1,1.1 H 11.9 C 11.3,6.7 10.8,6.2 10.8,5.6 V 2 2 h 12 z M 33.6,9.4 V 3 c 0,-1.6 -1.3,-3 -3,-3 H 3 C 1.4,0 0,1.3 0,3 v 36.8 c 0,1.6 1.3,3 3,3 h 27.6 c 1.6,0 3,-1.3 3,-3 V 31.9 C 32.9,31.7 32.3,31.4 31.7,31 v 8.8 c 0,0.6 -0.5,1.1 -1.1,1.1 H 3 C 2.4,40.9 1.9,40.4 1.9,39.8 V 3 C 1.9,2.4 2.4,1.9 3,1.9 h 5.9 v 3.6 c 0,1.6 1.3,3 3,3 h 9.8 c 1.6,0 3,-1.3 3,-3 V 1.9 h 5.9 c 0.6,0 1.1,0.5 1.1,1.1 v 7.2 C 32.3,9.9 33,9.6 33.6,9.4"
   id="path16" />
<path
   class="st1"
   d="m 40.7,19.3 -2.1,2.1 c -0.2,0.3 -0.5,0.4 -0.9,0.4 -0.6,0 -1.1,-0.4 -1.1,-1.1 v -5.4 c 0,-0.6 0.4,-1.1 1.1,-1.1 0.6,0 1.1,0.4 1.1,1.1 v 2.8 l 0.4,-0.4 c 0.4,-0.4 1.1,-0.4 1.5,0 0.5,0.5 0.5,1.2 0,1.6 m 4.2,-4.2 c 0.4,-0.4 0.4,-1.1 0,-1.5 -0.4,-0.4 -1.1,-0.4 -1.5,0 L 43,14 c -1.2,-1 -2.6,-1.5 -4.2,-1.7 v -2.2 h 1.1 C 40.5,10.1 41,9.7 41,9 41,8.4 40.6,7.9 39.9,7.9 h -4.3 c -0.6,0 -1.1,0.4 -1.1,1.1 0,0.6 0.4,1.1 1.1,1.1 h 1.1 v 2.3 c -4.2,0.5 -7.5,4.1 -7.5,8.5 0,4.7 3.9,8.6 8.6,8.6 4.7,0 8.6,-3.9 8.6,-8.6 0,-1.9 -0.6,-3.8 -1.8,-5.3 z"
   id="path18" />
<path
   class="st1"
   d="m 26.5,20.2 h -2.1 c -0.6,0 -1.1,0.4 -1.1,1.1 0,0.7 0.4,1.1 1.1,1.1 h 2.2 c 0.6,0 1.1,-0.4 1.1,-1.1 0,-0.7 -0.5,-1.1 -1.2,-1.1"
   id="path20" />
<path
   class="st1"
   d="m 27.3,15.9 h -1.1 c -0.6,0 -1.1,0.4 -1.1,1.1 0,0.7 0.4,1.1 1.1,1.1 h 1.1 c 0.6,0 1.1,-0.4 1.1,-1.1 0,-0.7 -0.6,-1.1 -1.1,-1.1"
   id="path22" />
<path
   class="st1"
   d="m 27.3,24.5 h -1.1 c -0.6,0 -1.1,0.4 -1.1,1.1 0,0.7 0.4,1.1 1.1,1.1 h 1.1 c 0.6,0 1.1,-0.4 1.1,-1.1 0,-0.7 -0.6,-1.1 -1.1,-1.1"
   id="path24" />
</svg>
