<?xml version="1.0" encoding="UTF-8"?>
<svg xmlns="http://www.w3.org/2000/svg" xmlns:xlink="http://www.w3.org/1999/xlink" width="100px" height="53px" viewBox="0 0 100 53" version="1.1">
<g id="surface1">
<path style=" stroke:none;fill-rule:nonzero;fill:rgb(100%,100%,100%);fill-opacity:1;" d="M 30.550781 24.195312 C 30.8125 24.441406 31.019531 24.792969 31.035156 25.15625 C 31.035156 25.1875 31.035156 25.214844 31.035156 25.246094 C 31.035156 25.265625 31.035156 25.28125 31.035156 25.296875 C 31.035156 25.355469 31.035156 25.414062 31.035156 25.46875 C 31.035156 25.511719 31.035156 25.550781 31.035156 25.59375 C 31.035156 25.707031 31.035156 25.824219 31.035156 25.9375 C 31.03125 26.0625 31.035156 26.1875 31.035156 26.308594 C 31.035156 26.527344 31.035156 26.746094 31.03125 26.964844 C 31.03125 27.289062 31.03125 27.613281 31.03125 27.933594 C 31.03125 28.480469 31.03125 29.027344 31.03125 29.570312 C 31.03125 30.109375 31.03125 30.648438 31.03125 31.191406 C 31.03125 31.207031 31.03125 31.222656 31.03125 31.242188 C 31.03125 31.394531 31.03125 31.546875 31.03125 31.699219 C 31.03125 32.078125 31.03125 32.460938 31.03125 32.839844 C 31.03125 32.867188 31.03125 32.867188 31.03125 32.894531 C 31.03125 33.738281 31.03125 34.578125 31.03125 35.421875 C 31.03125 35.714844 31.03125 36.007812 31.03125 36.300781 C 31.03125 36.320312 31.03125 36.335938 31.03125 36.355469 C 31.03125 37.199219 31.03125 38.042969 31.03125 38.886719 C 31.03125 38.941406 31.03125 38.996094 31.03125 39.050781 C 31.03125 39.6875 31.03125 40.324219 31.03125 40.957031 C 31.03125 43.730469 31.03125 46.5 31.03125 49.269531 C 34.875 49.269531 38.714844 49.269531 42.675781 49.269531 C 42.675781 48.3125 42.675781 47.355469 42.675781 46.367188 C 42.675781 45.796875 42.671875 45.226562 42.671875 44.65625 C 42.671875 44.320312 42.671875 43.984375 42.671875 43.652344 C 42.671875 43.609375 42.671875 43.570312 42.671875 43.53125 C 42.671875 42.886719 42.671875 42.242188 42.671875 41.597656 C 42.671875 40.933594 42.671875 40.273438 42.671875 39.609375 C 42.671875 39.515625 42.671875 39.421875 42.671875 39.328125 C 42.671875 39.308594 42.671875 39.292969 42.671875 39.273438 C 42.671875 38.976562 42.671875 38.679688 42.671875 38.382812 C 42.671875 38.085938 42.671875 37.789062 42.671875 37.488281 C 42.671875 37.328125 42.671875 37.167969 42.671875 37.003906 C 42.667969 36.855469 42.667969 36.710938 42.667969 36.5625 C 42.667969 36.507812 42.667969 36.453125 42.667969 36.402344 C 42.667969 35.90625 42.691406 35.40625 42.777344 34.917969 C 42.785156 34.886719 42.789062 34.855469 42.792969 34.824219 C 43.070312 33.261719 43.886719 31.617188 45.121094 30.585938 C 45.152344 30.558594 45.183594 30.53125 45.214844 30.503906 C 46.515625 29.273438 48.382812 28.640625 50.148438 28.675781 C 51.636719 28.730469 53.082031 29.203125 54.273438 30.105469 C 54.285156 30.117188 54.300781 30.128906 54.316406 30.140625 C 54.511719 30.289062 54.691406 30.445312 54.871094 30.613281 C 54.910156 30.648438 54.945312 30.683594 54.984375 30.71875 C 55.105469 30.828125 55.226562 30.9375 55.332031 31.0625 C 55.359375 31.097656 55.386719 31.128906 55.417969 31.164062 C 56.753906 32.589844 57.304688 34.558594 57.304688 36.476562 C 57.304688 36.53125 57.304688 36.585938 57.304688 36.640625 C 57.304688 36.792969 57.304688 36.945312 57.300781 37.097656 C 57.300781 37.242188 57.300781 37.390625 57.300781 37.535156 C 57.300781 37.835938 57.300781 38.136719 57.300781 38.4375 C 57.300781 38.730469 57.300781 39.027344 57.300781 39.324219 C 57.300781 39.34375 57.300781 39.363281 57.300781 39.382812 C 57.300781 39.476562 57.300781 39.570312 57.300781 39.664062 C 57.300781 40.328125 57.300781 40.992188 57.300781 41.65625 C 57.300781 42.300781 57.300781 42.945312 57.300781 43.589844 C 57.300781 43.628906 57.300781 43.671875 57.300781 43.710938 C 57.300781 44.039062 57.300781 44.371094 57.300781 44.699219 C 57.300781 46.222656 57.300781 47.746094 57.300781 49.269531 C 61.144531 49.269531 64.984375 49.269531 68.945312 49.269531 C 68.945312 47.527344 68.941406 45.785156 68.941406 43.988281 C 68.941406 42.953125 68.941406 41.917969 68.941406 40.882812 C 68.941406 40.257812 68.941406 39.632812 68.941406 39.007812 C 68.941406 38.953125 68.941406 38.898438 68.941406 38.84375 C 68.941406 38 68.9375 37.15625 68.9375 36.316406 C 68.9375 36.296875 68.9375 36.28125 68.9375 36.261719 C 68.9375 35.96875 68.9375 35.675781 68.9375 35.382812 C 68.9375 34.542969 68.9375 33.703125 68.9375 32.859375 C 68.9375 32.835938 68.9375 32.835938 68.9375 32.808594 C 68.9375 32.429688 68.9375 32.050781 68.9375 31.667969 C 68.9375 31.515625 68.9375 31.363281 68.9375 31.210938 C 68.9375 31.195312 68.9375 31.175781 68.9375 31.160156 C 68.9375 30.621094 68.933594 30.082031 68.933594 29.542969 C 68.933594 28.984375 68.933594 28.429688 68.933594 27.871094 C 68.933594 27.546875 68.933594 27.226562 68.933594 26.90625 C 68.933594 26.691406 68.933594 26.476562 68.933594 26.261719 C 68.933594 26.136719 68.933594 26.015625 68.933594 25.894531 C 68.933594 25.78125 68.933594 25.667969 68.933594 25.558594 C 68.933594 25.519531 68.933594 25.476562 68.933594 25.4375 C 68.929688 24.964844 69.054688 24.578125 69.386719 24.234375 C 69.671875 23.960938 70.027344 23.828125 70.421875 23.824219 C 70.835938 23.84375 71.1875 24 71.484375 24.292969 C 71.816406 24.691406 71.882812 25.105469 71.882812 25.609375 C 71.882812 25.652344 71.882812 25.699219 71.882812 25.742188 C 71.882812 25.863281 71.882812 25.984375 71.882812 26.105469 C 71.882812 26.238281 71.882812 26.371094 71.882812 26.503906 C 71.882812 26.734375 71.882812 26.964844 71.882812 27.199219 C 71.882812 27.542969 71.882812 27.886719 71.882812 28.230469 C 71.882812 28.878906 71.882812 29.53125 71.882812 30.183594 C 71.882812 30.253906 71.882812 30.324219 71.882812 30.398438 C 71.882812 30.414062 71.882812 30.433594 71.882812 30.449219 C 71.882812 30.84375 71.882812 31.238281 71.882812 31.632812 C 71.882812 31.796875 71.882812 31.960938 71.882812 32.121094 C 71.882812 32.140625 71.882812 32.160156 71.882812 32.175781 C 71.882812 33.207031 71.882812 34.234375 71.882812 35.265625 C 71.882812 35.300781 71.882812 35.339844 71.882812 35.378906 C 71.882812 35.554688 71.882812 35.726562 71.882812 35.902344 C 71.882812 35.980469 71.882812 36.054688 71.882812 36.132812 C 71.882812 36.171875 71.882812 36.210938 71.882812 36.25 C 71.882812 37.476562 71.882812 38.703125 71.886719 39.929688 C 71.886719 40.238281 71.886719 40.550781 71.886719 40.859375 C 71.886719 40.878906 71.886719 40.894531 71.886719 40.914062 C 71.886719 41.503906 71.886719 42.089844 71.886719 42.675781 C 71.886719 42.703125 71.886719 42.703125 71.886719 42.730469 C 71.886719 43.136719 71.886719 43.539062 71.886719 43.945312 C 71.886719 44.089844 71.886719 44.234375 71.886719 44.378906 C 71.886719 44.414062 71.886719 44.453125 71.886719 44.488281 C 71.886719 45.0625 71.886719 45.632812 71.886719 46.207031 C 71.886719 46.800781 71.886719 47.394531 71.886719 47.988281 C 71.886719 48.332031 71.886719 48.671875 71.886719 49.015625 C 71.886719 49.242188 71.886719 49.472656 71.886719 49.699219 C 71.886719 49.832031 71.886719 49.960938 71.886719 50.09375 C 71.886719 50.210938 71.886719 50.328125 71.886719 50.449219 C 71.886719 50.492188 71.886719 50.53125 71.886719 50.574219 C 71.890625 51.074219 71.785156 51.515625 71.429688 51.878906 C 71.136719 52.164062 70.792969 52.300781 70.386719 52.296875 C 70.359375 52.296875 70.335938 52.296875 70.308594 52.296875 C 70.222656 52.296875 70.136719 52.296875 70.050781 52.296875 C 69.988281 52.296875 69.925781 52.296875 69.863281 52.296875 C 69.730469 52.296875 69.59375 52.296875 69.460938 52.296875 C 69.257812 52.296875 69.058594 52.296875 68.855469 52.296875 C 68.496094 52.300781 68.136719 52.300781 67.777344 52.300781 C 67.464844 52.300781 67.152344 52.300781 66.835938 52.300781 C 66.792969 52.300781 66.75 52.300781 66.710938 52.300781 C 66.644531 52.300781 66.582031 52.300781 66.519531 52.300781 C 65.929688 52.300781 65.335938 52.300781 64.746094 52.300781 C 64.726562 52.300781 64.703125 52.300781 64.679688 52.300781 C 64.5 52.300781 64.316406 52.300781 64.136719 52.300781 C 63.433594 52.300781 62.726562 52.300781 62.023438 52.300781 C 61.230469 52.300781 60.4375 52.300781 59.644531 52.300781 C 59.558594 52.300781 59.476562 52.300781 59.390625 52.300781 C 59.371094 52.300781 59.347656 52.300781 59.328125 52.300781 C 59.015625 52.300781 58.699219 52.300781 58.386719 52.300781 C 58.027344 52.300781 57.671875 52.300781 57.316406 52.300781 C 57.113281 52.300781 56.914062 52.300781 56.714844 52.300781 C 56.566406 52.300781 56.417969 52.300781 56.265625 52.300781 C 56.207031 52.300781 56.148438 52.300781 56.085938 52.300781 C 55.511719 52.304688 55.511719 52.304688 55.25 52.191406 C 55.226562 52.179688 55.207031 52.171875 55.183594 52.164062 C 54.84375 52.023438 54.582031 51.691406 54.445312 51.359375 C 54.324219 51.023438 54.335938 50.679688 54.335938 50.328125 C 54.335938 50.265625 54.335938 50.203125 54.335938 50.140625 C 54.335938 50.003906 54.335938 49.871094 54.335938 49.734375 C 54.335938 49.535156 54.335938 49.332031 54.335938 49.132812 C 54.335938 48.796875 54.335938 48.457031 54.335938 48.117188 C 54.335938 47.65625 54.335938 47.195312 54.335938 46.734375 C 54.335938 46.519531 54.335938 46.304688 54.335938 46.085938 C 54.335938 46.066406 54.335938 46.042969 54.335938 46.023438 C 54.335938 45.507812 54.332031 44.996094 54.332031 44.484375 C 54.332031 44.460938 54.332031 44.4375 54.332031 44.414062 C 54.332031 44.074219 54.332031 43.734375 54.332031 43.390625 C 54.332031 43.027344 54.332031 42.664062 54.332031 42.300781 C 54.332031 42.28125 54.332031 42.257812 54.332031 42.234375 C 54.332031 41.722656 54.332031 41.210938 54.332031 40.699219 C 54.332031 40.675781 54.332031 40.65625 54.332031 40.632812 C 54.332031 40.417969 54.332031 40.203125 54.332031 39.988281 C 54.332031 39.527344 54.332031 39.066406 54.332031 38.605469 C 54.332031 38.269531 54.332031 37.933594 54.332031 37.597656 C 54.332031 37.398438 54.332031 37.199219 54.332031 36.996094 C 54.332031 36.847656 54.332031 36.699219 54.332031 36.550781 C 54.332031 36.488281 54.332031 36.429688 54.332031 36.371094 C 54.335938 35.175781 53.972656 34.113281 53.199219 33.199219 C 53.183594 33.179688 53.164062 33.160156 53.148438 33.140625 C 53.042969 33.015625 52.933594 32.910156 52.808594 32.804688 C 52.796875 32.796875 52.78125 32.785156 52.769531 32.773438 C 52.550781 32.589844 52.328125 32.429688 52.074219 32.289062 C 52.050781 32.277344 52.050781 32.277344 52.027344 32.265625 C 51.042969 31.730469 49.878906 31.589844 48.800781 31.910156 C 48.15625 32.109375 47.589844 32.417969 47.097656 32.882812 C 47.0625 32.914062 47.023438 32.949219 46.984375 32.980469 C 46.894531 33.050781 46.824219 33.136719 46.753906 33.222656 C 46.742188 33.234375 46.730469 33.25 46.722656 33.261719 C 46.0625 34.042969 45.648438 35.054688 45.652344 36.085938 C 45.652344 36.113281 45.652344 36.136719 45.652344 36.164062 C 45.652344 36.25 45.652344 36.335938 45.652344 36.421875 C 45.652344 36.484375 45.652344 36.546875 45.652344 36.609375 C 45.652344 36.742188 45.652344 36.878906 45.652344 37.011719 C 45.652344 37.214844 45.648438 37.414062 45.648438 37.617188 C 45.648438 37.933594 45.648438 38.25 45.648438 38.570312 C 45.648438 39.074219 45.648438 39.578125 45.648438 40.082031 C 45.648438 40.273438 45.648438 40.46875 45.648438 40.664062 C 45.648438 40.683594 45.648438 40.707031 45.648438 40.730469 C 45.648438 41.242188 45.648438 41.753906 45.644531 42.269531 C 45.644531 42.289062 45.644531 42.3125 45.644531 42.335938 C 45.644531 42.859375 45.644531 43.382812 45.644531 43.90625 C 45.644531 43.929688 45.644531 43.953125 45.644531 43.976562 C 45.644531 44.15625 45.644531 44.335938 45.644531 44.519531 C 45.644531 45.269531 45.644531 46.015625 45.640625 46.765625 C 45.640625 46.871094 45.640625 46.976562 45.640625 47.082031 C 45.640625 47.101562 45.640625 47.125 45.640625 47.144531 C 45.640625 47.480469 45.640625 47.816406 45.640625 48.148438 C 45.640625 48.484375 45.640625 48.824219 45.640625 49.160156 C 45.640625 49.359375 45.640625 49.558594 45.640625 49.757812 C 45.640625 49.90625 45.640625 50.058594 45.640625 50.207031 C 45.640625 50.265625 45.640625 50.328125 45.640625 50.386719 C 45.640625 51.164062 45.640625 51.164062 45.46875 51.488281 C 45.460938 51.503906 45.453125 51.519531 45.441406 51.535156 C 45.265625 51.863281 44.96875 52.113281 44.617188 52.234375 C 44.453125 52.28125 44.308594 52.300781 44.140625 52.296875 C 44.117188 52.296875 44.089844 52.296875 44.0625 52.296875 C 43.976562 52.296875 43.890625 52.296875 43.804688 52.296875 C 43.746094 52.296875 43.683594 52.296875 43.621094 52.296875 C 43.484375 52.296875 43.347656 52.296875 43.214844 52.296875 C 43.011719 52.296875 42.8125 52.296875 42.613281 52.296875 C 42.253906 52.300781 41.894531 52.300781 41.535156 52.300781 C 41.21875 52.300781 40.90625 52.300781 40.59375 52.300781 C 40.550781 52.300781 40.507812 52.300781 40.464844 52.300781 C 40.402344 52.300781 40.339844 52.300781 40.273438 52.300781 C 39.683594 52.300781 39.09375 52.300781 38.503906 52.300781 C 38.480469 52.300781 38.457031 52.300781 38.4375 52.300781 C 38.253906 52.300781 38.074219 52.300781 37.894531 52.300781 C 37.1875 52.300781 36.484375 52.300781 35.777344 52.300781 C 34.984375 52.300781 34.195312 52.300781 33.402344 52.300781 C 33.316406 52.300781 33.234375 52.300781 33.148438 52.300781 C 33.128906 52.300781 33.105469 52.300781 33.085938 52.300781 C 32.769531 52.300781 32.457031 52.300781 32.144531 52.300781 C 31.785156 52.300781 31.429688 52.300781 31.074219 52.300781 C 30.871094 52.300781 30.671875 52.300781 30.472656 52.300781 C 30.324219 52.300781 30.175781 52.300781 30.027344 52.300781 C 29.964844 52.300781 29.90625 52.300781 29.84375 52.300781 C 29.328125 52.304688 28.9375 52.25 28.546875 51.878906 C 28.167969 51.496094 28.085938 51.035156 28.089844 50.511719 C 28.089844 50.46875 28.089844 50.425781 28.085938 50.378906 C 28.085938 50.257812 28.085938 50.136719 28.089844 50.015625 C 28.089844 49.882812 28.089844 49.753906 28.085938 49.621094 C 28.085938 49.390625 28.085938 49.15625 28.085938 48.925781 C 28.089844 48.582031 28.085938 48.238281 28.085938 47.894531 C 28.085938 47.316406 28.085938 46.738281 28.085938 46.15625 C 28.085938 46.140625 28.085938 46.121094 28.085938 46.105469 C 28.085938 46.085938 28.085938 46.070312 28.085938 46.050781 C 28.085938 45.511719 28.085938 44.976562 28.085938 44.4375 C 28.085938 44.402344 28.085938 44.367188 28.085938 44.328125 C 28.085938 44.183594 28.085938 44.039062 28.085938 43.894531 C 28.085938 43.492188 28.085938 43.085938 28.085938 42.679688 C 28.085938 42.664062 28.085938 42.644531 28.085938 42.625 C 28.085938 42.039062 28.085938 41.453125 28.085938 40.863281 C 28.085938 40.84375 28.085938 40.828125 28.085938 40.808594 C 28.085938 40.496094 28.085938 40.1875 28.085938 39.878906 C 28.089844 38.652344 28.089844 37.425781 28.085938 36.199219 C 28.085938 35.890625 28.085938 35.582031 28.085938 35.273438 C 28.085938 35.253906 28.085938 35.234375 28.085938 35.214844 C 28.085938 34.628906 28.085938 34.042969 28.085938 33.457031 C 28.085938 33.4375 28.085938 33.421875 28.085938 33.402344 C 28.085938 32.996094 28.085938 32.59375 28.085938 32.1875 C 28.085938 32.042969 28.085938 31.898438 28.085938 31.753906 C 28.085938 31.71875 28.085938 31.683594 28.085938 31.644531 C 28.085938 31.109375 28.085938 30.570312 28.085938 30.035156 C 28.085938 30.015625 28.085938 30 28.085938 29.980469 C 28.085938 29.960938 28.085938 29.945312 28.085938 29.925781 C 28.085938 29.332031 28.085938 28.742188 28.085938 28.148438 C 28.085938 27.804688 28.089844 27.464844 28.085938 27.121094 C 28.085938 26.894531 28.085938 26.664062 28.085938 26.4375 C 28.089844 26.304688 28.089844 26.175781 28.085938 26.046875 C 28.085938 25.925781 28.085938 25.808594 28.089844 25.691406 C 28.089844 25.648438 28.089844 25.605469 28.089844 25.5625 C 28.085938 25.066406 28.1875 24.621094 28.546875 24.257812 C 29.105469 23.714844 29.953125 23.683594 30.550781 24.195312 Z M 30.550781 24.195312 "/>
<path style=" stroke:none;fill-rule:nonzero;fill:rgb(100%,100%,100%);fill-opacity:1;" d="M 50.828125 0.957031 C 50.914062 1.015625 50.996094 1.078125 51.074219 1.140625 C 51.121094 1.175781 51.164062 1.210938 51.210938 1.246094 C 51.230469 1.261719 51.253906 1.28125 51.277344 1.300781 C 51.375 1.375 51.476562 1.449219 51.574219 1.519531 C 51.761719 1.660156 51.945312 1.796875 52.128906 1.9375 C 52.269531 2.046875 52.410156 2.152344 52.550781 2.257812 C 52.738281 2.394531 52.925781 2.535156 53.109375 2.679688 C 53.238281 2.777344 53.363281 2.875 53.492188 2.96875 C 53.640625 3.082031 53.789062 3.195312 53.9375 3.308594 C 54.121094 3.449219 54.304688 3.585938 54.488281 3.722656 C 54.65625 3.847656 54.820312 3.972656 54.984375 4.097656 C 55.125 4.207031 55.265625 4.3125 55.40625 4.417969 C 55.59375 4.554688 55.777344 4.695312 55.960938 4.835938 C 56.101562 4.941406 56.242188 5.046875 56.382812 5.152344 C 56.570312 5.289062 56.753906 5.429688 56.9375 5.570312 C 57.078125 5.679688 57.21875 5.785156 57.359375 5.890625 C 57.546875 6.027344 57.730469 6.164062 57.914062 6.308594 C 58.054688 6.414062 58.195312 6.519531 58.335938 6.625 C 58.523438 6.761719 58.707031 6.902344 58.890625 7.042969 C 59.03125 7.152344 59.171875 7.257812 59.3125 7.359375 C 59.5 7.5 59.683594 7.636719 59.867188 7.777344 C 60.011719 7.890625 60.15625 8 60.304688 8.105469 C 60.46875 8.226562 60.632812 8.351562 60.792969 8.480469 C 61.074219 8.695312 61.355469 8.910156 61.640625 9.121094 C 61.808594 9.242188 61.972656 9.371094 62.136719 9.496094 C 62.277344 9.605469 62.417969 9.710938 62.5625 9.816406 C 62.746094 9.953125 62.929688 10.09375 63.113281 10.234375 C 63.253906 10.339844 63.394531 10.445312 63.539062 10.550781 C 63.722656 10.6875 63.90625 10.828125 64.089844 10.96875 C 64.230469 11.078125 64.371094 11.183594 64.515625 11.285156 C 64.699219 11.425781 64.882812 11.5625 65.066406 11.707031 C 65.207031 11.8125 65.347656 11.917969 65.492188 12.023438 C 65.675781 12.160156 65.859375 12.300781 66.042969 12.441406 C 66.183594 12.546875 66.324219 12.65625 66.46875 12.757812 C 66.652344 12.894531 66.835938 13.035156 67.019531 13.175781 C 67.164062 13.289062 67.308594 13.398438 67.457031 13.503906 C 67.621094 13.625 67.785156 13.75 67.945312 13.875 C 68.226562 14.09375 68.507812 14.308594 68.792969 14.519531 C 68.960938 14.640625 69.125 14.769531 69.292969 14.894531 C 69.429688 15.003906 69.570312 15.109375 69.714844 15.214844 C 69.902344 15.351562 70.085938 15.488281 70.269531 15.632812 C 70.40625 15.738281 70.546875 15.84375 70.691406 15.949219 C 70.878906 16.085938 71.0625 16.226562 71.246094 16.367188 C 71.382812 16.476562 71.523438 16.582031 71.667969 16.683594 C 71.855469 16.820312 72.039062 16.960938 72.222656 17.101562 C 72.359375 17.210938 72.5 17.316406 72.644531 17.421875 C 72.832031 17.558594 73.015625 17.699219 73.199219 17.839844 C 73.335938 17.945312 73.476562 18.054688 73.621094 18.15625 C 73.808594 18.292969 73.992188 18.433594 74.171875 18.574219 C 74.316406 18.6875 74.464844 18.792969 74.609375 18.902344 C 74.773438 19.023438 74.9375 19.148438 75.101562 19.273438 C 75.378906 19.492188 75.664062 19.707031 75.949219 19.917969 C 76.113281 20.039062 76.28125 20.167969 76.445312 20.292969 C 76.585938 20.402344 76.730469 20.507812 76.875 20.617188 C 77.023438 20.726562 77.175781 20.839844 77.324219 20.953125 C 77.34375 20.96875 77.359375 20.980469 77.375 20.992188 C 77.722656 21.261719 77.988281 21.582031 78.050781 22.035156 C 78.085938 22.523438 78.011719 22.945312 77.6875 23.328125 C 77.554688 23.476562 77.421875 23.570312 77.246094 23.660156 C 77.230469 23.667969 77.214844 23.679688 77.195312 23.6875 C 76.859375 23.851562 76.480469 23.859375 76.125 23.75 C 75.820312 23.644531 75.582031 23.433594 75.332031 23.238281 C 75.234375 23.160156 75.136719 23.089844 75.035156 23.015625 C 74.851562 22.878906 74.667969 22.738281 74.484375 22.597656 C 74.34375 22.488281 74.203125 22.382812 74.058594 22.28125 C 73.875 22.140625 73.691406 22.003906 73.507812 21.863281 C 73.367188 21.753906 73.226562 21.648438 73.082031 21.542969 C 72.898438 21.40625 72.714844 21.265625 72.53125 21.125 C 72.390625 21.019531 72.25 20.910156 72.105469 20.808594 C 71.835938 20.605469 71.566406 20.398438 71.296875 20.191406 C 71.054688 20.003906 70.808594 19.820312 70.5625 19.636719 C 70.394531 19.511719 70.230469 19.386719 70.0625 19.261719 C 69.925781 19.152344 69.785156 19.046875 69.640625 18.941406 C 69.453125 18.804688 69.269531 18.664062 69.085938 18.523438 C 68.949219 18.417969 68.808594 18.3125 68.664062 18.207031 C 68.476562 18.070312 68.292969 17.929688 68.109375 17.789062 C 67.972656 17.679688 67.832031 17.574219 67.6875 17.46875 C 67.5 17.332031 67.316406 17.191406 67.132812 17.050781 C 66.996094 16.945312 66.855469 16.839844 66.710938 16.734375 C 66.523438 16.597656 66.339844 16.457031 66.15625 16.316406 C 66.019531 16.207031 65.878906 16.101562 65.734375 16 C 65.546875 15.859375 65.363281 15.71875 65.175781 15.578125 C 65.050781 15.480469 64.921875 15.382812 64.796875 15.285156 C 64.644531 15.175781 64.496094 15.058594 64.347656 14.945312 C 64.164062 14.804688 63.984375 14.667969 63.796875 14.53125 C 63.632812 14.410156 63.464844 14.285156 63.300781 14.15625 C 63.160156 14.050781 63.019531 13.945312 62.878906 13.839844 C 62.691406 13.703125 62.507812 13.5625 62.324219 13.421875 C 62.183594 13.3125 62.042969 13.207031 61.902344 13.101562 C 61.714844 12.964844 61.53125 12.824219 61.347656 12.683594 C 61.207031 12.578125 61.066406 12.472656 60.925781 12.367188 C 60.738281 12.230469 60.554688 12.089844 60.371094 11.949219 C 60.230469 11.839844 60.089844 11.734375 59.949219 11.628906 C 59.761719 11.492188 59.578125 11.355469 59.394531 11.210938 C 59.253906 11.101562 59.109375 10.996094 58.964844 10.890625 C 58.769531 10.746094 58.574219 10.597656 58.378906 10.445312 C 58.097656 10.226562 57.8125 10.011719 57.523438 9.796875 C 57.355469 9.675781 57.191406 9.546875 57.027344 9.421875 C 56.886719 9.3125 56.746094 9.207031 56.605469 9.101562 C 56.417969 8.964844 56.234375 8.824219 56.050781 8.683594 C 55.910156 8.578125 55.769531 8.472656 55.628906 8.367188 C 55.441406 8.230469 55.257812 8.089844 55.074219 7.949219 C 54.933594 7.839844 54.792969 7.734375 54.652344 7.632812 C 54.464844 7.492188 54.28125 7.355469 54.097656 7.214844 C 53.957031 7.105469 53.816406 7 53.675781 6.894531 C 53.488281 6.757812 53.304688 6.617188 53.121094 6.476562 C 52.980469 6.371094 52.839844 6.261719 52.699219 6.160156 C 52.511719 6.023438 52.328125 5.882812 52.144531 5.742188 C 52 5.632812 51.855469 5.519531 51.710938 5.410156 C 51.539062 5.285156 51.375 5.15625 51.207031 5.027344 C 51.027344 4.890625 50.84375 4.753906 50.664062 4.617188 C 50.441406 4.457031 50.21875 4.289062 50 4.121094 C 49.835938 4.226562 49.683594 4.34375 49.527344 4.460938 C 49.484375 4.496094 49.4375 4.53125 49.390625 4.566406 C 49.359375 4.589844 49.359375 4.589844 49.324219 4.617188 C 49.257812 4.667969 49.191406 4.722656 49.121094 4.773438 C 49.011719 4.855469 48.902344 4.9375 48.796875 5.019531 C 48.589844 5.179688 48.382812 5.335938 48.171875 5.488281 C 48.027344 5.597656 47.882812 5.707031 47.742188 5.816406 C 47.5625 5.953125 47.378906 6.089844 47.195312 6.226562 C 47.050781 6.332031 46.90625 6.441406 46.765625 6.550781 C 46.585938 6.691406 46.402344 6.828125 46.21875 6.960938 C 46.074219 7.070312 45.929688 7.175781 45.789062 7.289062 C 45.609375 7.425781 45.425781 7.5625 45.242188 7.699219 C 45.097656 7.804688 44.953125 7.914062 44.8125 8.023438 C 44.632812 8.164062 44.449219 8.296875 44.265625 8.433594 C 44.121094 8.539062 43.976562 8.648438 43.835938 8.757812 C 43.65625 8.898438 43.472656 9.035156 43.289062 9.167969 C 43.125 9.292969 42.957031 9.417969 42.792969 9.546875 C 42.652344 9.65625 42.511719 9.761719 42.367188 9.867188 C 42.214844 9.976562 42.066406 10.089844 41.917969 10.207031 C 41.753906 10.339844 41.585938 10.464844 41.414062 10.589844 C 41.269531 10.699219 41.125 10.808594 40.980469 10.917969 C 40.796875 11.058594 40.617188 11.195312 40.433594 11.328125 C 40.289062 11.4375 40.144531 11.546875 40.003906 11.65625 C 39.820312 11.792969 39.640625 11.929688 39.457031 12.066406 C 39.3125 12.171875 39.167969 12.28125 39.027344 12.390625 C 38.84375 12.53125 38.664062 12.667969 38.480469 12.800781 C 38.335938 12.910156 38.191406 13.015625 38.050781 13.128906 C 37.867188 13.265625 37.6875 13.402344 37.503906 13.539062 C 37.359375 13.644531 37.214844 13.753906 37.074219 13.863281 C 36.890625 14.003906 36.710938 14.136719 36.527344 14.273438 C 36.359375 14.398438 36.195312 14.523438 36.03125 14.648438 C 35.890625 14.757812 35.746094 14.863281 35.601562 14.96875 C 35.453125 15.082031 35.304688 15.195312 35.15625 15.3125 C 34.988281 15.441406 34.820312 15.570312 34.652344 15.695312 C 34.503906 15.800781 34.359375 15.910156 34.214844 16.023438 C 34.035156 16.160156 33.855469 16.296875 33.671875 16.433594 C 33.527344 16.539062 33.382812 16.648438 33.238281 16.757812 C 33.058594 16.898438 32.878906 17.035156 32.695312 17.167969 C 32.550781 17.277344 32.40625 17.386719 32.261719 17.496094 C 32.082031 17.632812 31.902344 17.769531 31.71875 17.90625 C 31.574219 18.011719 31.429688 18.121094 31.285156 18.230469 C 31.105469 18.371094 30.925781 18.507812 30.742188 18.640625 C 30.597656 18.75 30.453125 18.855469 30.308594 18.96875 C 30.128906 19.105469 29.949219 19.242188 29.765625 19.378906 C 29.597656 19.5 29.433594 19.625 29.269531 19.753906 C 29.128906 19.863281 28.984375 19.96875 28.839844 20.074219 C 28.691406 20.183594 28.539062 20.296875 28.394531 20.414062 C 28.226562 20.546875 28.058594 20.671875 27.886719 20.796875 C 27.742188 20.90625 27.597656 21.015625 27.453125 21.125 C 27.273438 21.265625 27.089844 21.402344 26.910156 21.535156 C 26.761719 21.644531 26.621094 21.753906 26.476562 21.863281 C 26.296875 22 26.113281 22.136719 25.933594 22.273438 C 25.785156 22.378906 25.644531 22.488281 25.5 22.597656 C 25.320312 22.738281 25.140625 22.875 24.957031 23.007812 C 24.828125 23.101562 24.703125 23.195312 24.582031 23.292969 C 24.113281 23.65625 23.726562 23.855469 23.121094 23.800781 C 23.007812 23.78125 22.90625 23.75 22.804688 23.703125 C 22.769531 23.6875 22.769531 23.6875 22.734375 23.671875 C 22.367188 23.492188 22.101562 23.167969 21.972656 22.78125 C 21.875 22.472656 21.871094 22.066406 21.996094 21.765625 C 22.015625 21.722656 22.015625 21.722656 22.03125 21.679688 C 22.195312 21.3125 22.480469 21.074219 22.800781 20.84375 C 22.957031 20.726562 23.113281 20.609375 23.265625 20.488281 C 23.433594 20.359375 23.601562 20.230469 23.773438 20.105469 C 23.917969 19.996094 24.0625 19.886719 24.207031 19.777344 C 24.386719 19.636719 24.570312 19.5 24.75 19.367188 C 24.898438 19.261719 25.039062 19.152344 25.183594 19.039062 C 25.363281 18.902344 25.546875 18.765625 25.726562 18.628906 C 25.875 18.523438 26.015625 18.414062 26.160156 18.304688 C 26.339844 18.164062 26.523438 18.03125 26.703125 17.894531 C 26.851562 17.789062 26.992188 17.679688 27.136719 17.570312 C 27.316406 17.429688 27.5 17.292969 27.679688 17.160156 C 27.828125 17.050781 27.96875 16.941406 28.113281 16.832031 C 28.292969 16.695312 28.476562 16.558594 28.65625 16.421875 C 28.824219 16.300781 28.988281 16.171875 29.152344 16.046875 C 29.296875 15.9375 29.4375 15.832031 29.582031 15.726562 C 29.734375 15.613281 29.882812 15.5 30.03125 15.382812 C 30.195312 15.253906 30.363281 15.125 30.535156 15 C 30.679688 14.894531 30.824219 14.785156 30.96875 14.671875 C 31.148438 14.535156 31.332031 14.398438 31.515625 14.261719 C 31.660156 14.15625 31.804688 14.046875 31.945312 13.9375 C 32.125 13.796875 32.308594 13.660156 32.492188 13.527344 C 32.636719 13.421875 32.78125 13.3125 32.921875 13.199219 C 33.101562 13.0625 33.285156 12.925781 33.46875 12.789062 C 33.613281 12.683594 33.757812 12.574219 33.898438 12.464844 C 34.078125 12.324219 34.261719 12.191406 34.445312 12.054688 C 34.589844 11.949219 34.734375 11.839844 34.875 11.730469 C 35.054688 11.589844 35.238281 11.453125 35.421875 11.320312 C 35.585938 11.195312 35.753906 11.070312 35.917969 10.941406 C 36.058594 10.832031 36.199219 10.726562 36.34375 10.621094 C 36.496094 10.511719 36.644531 10.398438 36.792969 10.28125 C 36.957031 10.148438 37.125 10.023438 37.296875 9.898438 C 37.441406 9.789062 37.585938 9.679688 37.730469 9.570312 C 37.914062 9.429688 38.09375 9.292969 38.277344 9.160156 C 38.421875 9.050781 38.566406 8.941406 38.707031 8.832031 C 38.890625 8.695312 39.070312 8.558594 39.253906 8.421875 C 39.398438 8.316406 39.542969 8.207031 39.683594 8.097656 C 39.867188 7.957031 40.046875 7.820312 40.230469 7.6875 C 40.375 7.582031 40.519531 7.472656 40.660156 7.359375 C 40.84375 7.222656 41.023438 7.085938 41.207031 6.949219 C 41.351562 6.84375 41.496094 6.734375 41.636719 6.625 C 41.820312 6.484375 42 6.351562 42.183594 6.214844 C 42.351562 6.089844 42.515625 5.964844 42.679688 5.839844 C 42.820312 5.730469 42.964844 5.625 43.109375 5.519531 C 43.257812 5.40625 43.40625 5.292969 43.554688 5.175781 C 43.722656 5.046875 43.890625 4.917969 44.058594 4.792969 C 44.207031 4.6875 44.351562 4.578125 44.496094 4.464844 C 44.675781 4.328125 44.855469 4.191406 45.039062 4.054688 C 45.183594 3.949219 45.328125 3.839844 45.472656 3.730469 C 45.652344 3.589844 45.832031 3.453125 46.015625 3.320312 C 46.160156 3.210938 46.304688 3.101562 46.449219 2.992188 C 46.628906 2.855469 46.808594 2.71875 46.992188 2.582031 C 47.136719 2.476562 47.28125 2.367188 47.425781 2.257812 C 47.605469 2.117188 47.785156 1.980469 47.96875 1.847656 C 48.113281 1.742188 48.257812 1.632812 48.402344 1.519531 C 48.570312 1.390625 48.738281 1.265625 48.90625 1.136719 C 48.925781 1.125 48.941406 1.109375 48.960938 1.097656 C 49.128906 0.96875 49.308594 0.847656 49.507812 0.777344 C 49.542969 0.765625 49.542969 0.765625 49.574219 0.753906 C 50.011719 0.617188 50.449219 0.726562 50.828125 0.957031 Z M 50.828125 0.957031 "/>
</g>
</svg>
