<?xml version="1.0" encoding="UTF-8" standalone="no"?>
<!-- Generator: Adobe Illustrator 25.4.1, SVG Export Plug-In . SVG Version: 6.00 Build 0)  -->

<svg
   version="1.1"
   id="Capa_1"
   x="0px"
   y="0px"
   viewBox="0 0 48.201209 48.625001"
   xml:space="preserve"
   sodipodi:docname="c04937dc7726f96c0e54120be191a2c2.svg"
   width="48.20121"
   height="48.625"
   xmlns:inkscape="http://www.inkscape.org/namespaces/inkscape"
   xmlns:sodipodi="http://sodipodi.sourceforge.net/DTD/sodipodi-0.dtd"
   xmlns="http://www.w3.org/2000/svg"
   xmlns:svg="http://www.w3.org/2000/svg"><defs
   id="defs19" /><sodipodi:namedview
   id="namedview17"
   pagecolor="#ffffff"
   bordercolor="#666666"
   borderopacity="1.0"
   inkscape:pageshadow="2"
   inkscape:pageopacity="0.0"
   inkscape:pagecheckerboard="0" />
<style
   type="text/css"
   id="style2">
	.st0{fill:#0033AB;}
	.st1{fill:#222221;}
</style>
<path
   class="st0"
   d="m 26.7,18.8 c -4,-0.9 -8,1.5 -9,5.5 -0.3,1.3 -0.3,2.7 0.1,4 0.1,0.2 0,0.5 -0.2,0.7 L 3.1,43.5 c -1.1,1.1 -1.1,2.9 0,4 l 0.3,0.3 c 1.1,1.1 2.9,1.1 4,0 L 21.9,33.3 c 0.2,-0.2 0.5,-0.2 0.7,-0.1 1.3,0.4 2.7,0.5 4,0.1 4,-1 6.4,-5 5.5,-9 l -4.5,4.5 C 27.4,29 27.2,29 26.9,29 l -3.6,-1 c -0.2,-0.1 -0.4,-0.2 -0.5,-0.5 l -1,-3.6 c -0.1,-0.2 0,-0.5 0.2,-0.6 z"
   id="path4" />
<path
   class="st1"
   d="m 26.5,42.2 c -1.5,-2 -4.8,-0.9 -4.8,1.6 0,2.3 2.8,3.5 4.4,1.9 -1.3,-0.8 -1.1,-2.9 0.4,-3.5"
   id="path6" />
<path
   class="st1"
   d="m 43.7,30.8 c 6.1,-0.4 6,-14.1 -0.3,-14.1 -0.8,0 -1.8,-0.1 -2.6,0.2 -0.9,0.3 -1.7,1 -1.7,1.9 v 10 c 0,0.6 0.4,1.1 0.9,1.5 0.3,-0.7 1,-1.2 1.8,-1.2 1,0 1.8,0.8 1.9,1.7"
   id="path8" />
<path
   class="st1"
   d="M 6.3,16.7 H 4.8 c -6.4,0 -6.4,14.1 0,14.1 1.3,0 2.5,0.1 3.5,-0.7 0.5,-0.4 0.8,-0.9 0.8,-1.4 v -10 c 0,-1.2 -1.5,-2 -2.8,-2"
   id="path10" />
<path
   class="st1"
   d="m 5.7,15.4 c 0.4,0 0.8,0 1.3,0.1 C 9,4.9 20.3,-1.4 30.4,2.5 36,4.7 40.1,9.6 41.2,15.5 41.6,15.4 42,15.4 42.5,15.4 40.9,6.5 33.2,0 24.1,0 15.1,0.1 7.3,6.6 5.7,15.4"
   id="path12" />
<path
   class="st1"
   d="m 26.4,43.8 c 6.1,0.2 12,-2.6 14.2,-8.5 0.5,-1.4 0.8,-2.9 0.8,-4.5 0.5,0.1 0.8,0 1.3,0 0.1,5.9 -3.4,10.8 -8.9,12.9 -2.2,0.9 -4.7,1.2 -7.4,1.1 z"
   id="path14" />
</svg>
