<?xml version="1.0" standalone="no"?>
<!DOCTYPE svg PUBLIC "-//W3C//DTD SVG 1.0//EN" "http://www.w3.org/TR/2001/REC-SVG-20010904/DTD/svg10.dtd">
<svg xmlns="http://www.w3.org/2000/svg" xmlns:xlink="http://www.w3.org/1999/xlink" id="body_1" width="5464" height="2883">

<g transform="matrix(1.3333334 0 0 1.3333334 0 0)">
	<g transform="matrix(0.1 0 -0 -0.1 0 2162)">
		<path  d="M20105 21309C 19773 21293 19234 21245 19178 21225C 19171 21223 19118 21214 19060 21205C 18794 21166 18628 21139 18550 21125C 18503 21116 18431 21102 18390 21095C 18349 21087 18284 21074 18245 21066C 18207 21057 18162 21050 18147 21050C 18132 21050 18103 21042 18082 21031C 18062 21021 18016 21006 17980 20997C 17897 20978 17699 20925 17590 20893C 17413 20841 17381 20831 17240 20785C 16784 20636 16328 20449 15865 20220C 14200 19398 12775 18143 11745 16590C 11485 16197 11285 15850 11080 15435C 10744 14754 10505 14109 10310 13355C 10295 13295 10275 13225 10266 13200C 10251 13155 10211 12959 10185 12803C 10178 12758 10169 12713 10166 12703C 10163 12693 10149 12609 10136 12515C 10122 12422 10103 12300 10095 12245C 10045 11925 10031 11798 10004 11430C 9980 11112 9980 10476 10003 10150C 10076 9133 10265 8217 10587 7315C 11046 6029 11745 4853 12665 3820C 12836 3628 13205 3255 13410 3067C 14577 2000 15975 1202 17470 750C 17645 697 17643 698 17860 642C 17962 615 18068 588 18095 580C 18123 573 18163 564 18185 560C 18207 556 18329 531 18455 506C 19684 257 20901 238 22200 445C 22318 464 22424 482 22435 484C 22492 496 22844 572 22900 585C 22953 597 23237 672 23375 709C 23456 732 23810 845 23920 884C 24657 1143 25401 1501 26040 1902C 27268 2674 28316 3678 29143 4874C 29605 5542 30027 6344 30315 7105C 30458 7481 30567 7824 30666 8205C 30749 8525 30851 9038 30899 9385C 30929 9595 30966 9974 30982 10225C 31000 10506 30997 11167 30976 11435C 30956 11703 30923 12036 30910 12099C 30905 12124 30887 12235 30870 12345C 30831 12601 30772 12946 30760 12985C 30755 13002 30744 13057 30735 13108C 30727 13160 30714 13212 30708 13223C 30702 13235 30684 13295 30669 13355C 30476 14117 30212 14819 29855 15525C 29346 16529 28700 17420 27900 18220C 26881 19239 25689 20026 24350 20562C 24062 20678 23613 20833 23411 20886C 23382 20894 23355 20902 23351 20904C 23344 20908 23215 20944 23035 20990C 22975 21006 22905 21026 22880 21034C 22855 21042 22795 21057 22745 21066C 22696 21075 22635 21087 22610 21092C 22511 21111 21868 21216 21699 21240C 21261 21302 20584 21331 20105 21309zM20935 19890C 21335 19869 21517 19848 22060 19759C 22418 19700 22776 19618 23115 19517C 23143 19508 23197 19492 23235 19481C 23329 19454 23614 19354 23775 19292C 25876 18485 27610 16912 28615 14900C 28869 14393 29084 13844 29214 13375C 29234 13304 29254 13232 29259 13215C 29284 13137 29353 12842 29385 12684C 29426 12479 29509 11955 29530 11775C 29586 11280 29594 10540 29549 10020C 29508 9539 29421 9013 29314 8595C 29305 8562 29292 8508 29284 8475C 29276 8442 29261 8385 29250 8348C 29239 8310 29220 8247 29209 8208C 28935 7270 28482 6337 27909 5535C 27686 5222 27414 4886 27201 4657C 27128 4580 27128 4580 27077 4580L27077 4580L27025 4581L26994 4678C 26890 5001 26701 5387 26493 5704C 25866 6660 24888 7355 23795 7620C 23576 7674 23435 7696 23225 7710C 23132 7717 23033 7727 23005 7733C 22971 7740 22215 7745 20575 7747C 18258 7751 18190 7750 17990 7731C 17877 7720 17740 7708 17685 7705C 17427 7689 17040 7598 16709 7475C 15628 7073 14740 6277 14224 5248C 14136 5072 14051 4870 13999 4713L13999 4713L13955 4580L13901 4583L13846 4585L13740 4701C 12849 5672 12131 6954 11766 8225C 11751 8275 11735 8329 11730 8345C 11720 8379 11651 8654 11621 8780C 11517 9223 11437 9816 11410 10340C 11383 10870 11413 11575 11481 12000C 11492 12069 11508 12170 11516 12225C 11582 12648 11652 12984 11724 13230C 11732 13255 11743 13293 11749 13315C 11948 14037 12289 14826 12698 15510C 13172 16303 13828 17081 14537 17693C 15330 18377 16245 18924 17222 19299C 17381 19360 17675 19460 17810 19500C 17851 19513 17920 19533 17964 19547C 18178 19612 18671 19723 18865 19750C 18898 19755 18966 19765 19015 19773C 19440 19845 19699 19874 20105 19893C 20261 19901 20765 19899 20935 19890z" stroke="none"  fill="#000000" fill-rule="nonzero" />
		<path  d="M20220 18294C 20003 18275 19848 18258 19810 18250C 19785 18244 19707 18229 19635 18216C 19564 18202 19480 18185 19450 18177C 19420 18169 19359 18152 19315 18141C 19197 18109 18982 18035 18840 17978C 17622 17484 16662 16467 16247 15230C 16182 15037 16161 14958 16104 14710C 16082 14610 16043 14349 16029 14205C 16013 14038 16013 13611 16029 13450C 16043 13311 16092 12988 16114 12895C 16209 12494 16296 12243 16454 11915C 16559 11697 16634 11566 16775 11355C 17339 10509 18165 9884 19150 9559C 19432 9466 19702 9411 20085 9368C 20229 9351 20750 9351 20895 9368C 21145 9396 21251 9414 21445 9456C 22317 9648 23150 10129 23765 10796C 24243 11315 24586 11919 24793 12605C 24919 13024 24987 13602 24961 14040C 24924 14665 24777 15227 24509 15770C 23971 16862 23031 17686 21880 18074C 21806 18099 21720 18126 21690 18134C 21660 18142 21599 18158 21555 18170C 21422 18206 21185 18250 21010 18271C 20852 18290 20342 18305 20220 18294z" stroke="none"  fill="#000000" fill-rule="nonzero" />
	</g>
</g>
</svg>
