<?xml version="1.0" encoding="UTF-8"?>
<svg xmlns="http://www.w3.org/2000/svg" xmlns:xlink="http://www.w3.org/1999/xlink" width="100px" height="53px" viewBox="0 0 100 53" version="1.1">
<g id="surface1">
<path style=" stroke:none;fill-rule:nonzero;fill:rgb(0%,0%,0%);fill-opacity:1;" d="M 49.058594 0.761719 C 48.25 0.800781 46.933594 0.917969 46.796875 0.96875 C 46.78125 0.972656 46.652344 0.996094 46.511719 1.015625 C 45.863281 1.113281 45.457031 1.179688 45.265625 1.214844 C 45.152344 1.234375 44.976562 1.269531 44.875 1.285156 C 44.777344 1.304688 44.617188 1.339844 44.523438 1.359375 C 44.429688 1.378906 44.320312 1.398438 44.28125 1.398438 C 44.246094 1.398438 44.175781 1.417969 44.125 1.445312 C 44.074219 1.46875 43.964844 1.503906 43.875 1.527344 C 43.671875 1.574219 43.1875 1.703125 42.921875 1.78125 C 42.492188 1.910156 42.414062 1.933594 42.070312 2.046875 C 40.957031 2.410156 39.84375 2.871094 38.714844 3.429688 C 34.652344 5.445312 31.171875 8.523438 28.660156 12.328125 C 28.027344 13.292969 27.539062 14.144531 27.039062 15.160156 C 26.21875 16.828125 25.632812 18.410156 25.160156 20.257812 C 25.121094 20.40625 25.074219 20.578125 25.050781 20.640625 C 25.015625 20.75 24.917969 21.230469 24.855469 21.613281 C 24.835938 21.722656 24.816406 21.832031 24.808594 21.855469 C 24.800781 21.882812 24.765625 22.085938 24.734375 22.316406 C 24.699219 22.546875 24.652344 22.84375 24.632812 22.980469 C 24.511719 23.765625 24.476562 24.074219 24.410156 24.976562 C 24.351562 25.757812 24.351562 27.316406 24.410156 28.113281 C 24.585938 30.609375 25.046875 32.851562 25.835938 35.0625 C 26.953125 38.214844 28.660156 41.097656 30.90625 43.628906 C 31.324219 44.101562 32.222656 45.015625 32.722656 45.476562 C 35.570312 48.089844 38.984375 50.046875 42.628906 51.15625 C 43.058594 51.285156 43.050781 51.28125 43.582031 51.421875 C 43.832031 51.488281 44.089844 51.550781 44.15625 51.570312 C 44.222656 51.589844 44.320312 51.613281 44.375 51.621094 C 44.429688 51.632812 44.726562 51.691406 45.035156 51.753906 C 48.03125 52.363281 51.003906 52.410156 54.171875 51.902344 C 54.460938 51.855469 54.71875 51.8125 54.746094 51.808594 C 54.886719 51.777344 55.746094 51.59375 55.882812 51.558594 C 56.011719 51.53125 56.703125 51.347656 57.039062 51.257812 C 57.238281 51.199219 58.101562 50.921875 58.371094 50.828125 C 60.167969 50.191406 61.984375 49.316406 63.542969 48.332031 C 66.539062 46.441406 69.097656 43.980469 71.113281 41.046875 C 72.242188 39.410156 73.273438 37.445312 73.976562 35.578125 C 74.324219 34.65625 74.589844 33.816406 74.832031 32.882812 C 75.035156 32.097656 75.28125 30.839844 75.398438 29.988281 C 75.472656 29.476562 75.5625 28.546875 75.601562 27.929688 C 75.648438 27.242188 75.640625 25.621094 75.589844 24.964844 C 75.539062 24.308594 75.457031 23.492188 75.425781 23.335938 C 75.414062 23.277344 75.371094 23.003906 75.328125 22.734375 C 75.234375 22.105469 75.089844 21.261719 75.0625 21.164062 C 75.046875 21.125 75.023438 20.988281 75 20.863281 C 74.980469 20.738281 74.949219 20.609375 74.933594 20.582031 C 74.917969 20.554688 74.875 20.40625 74.839844 20.257812 C 74.367188 18.390625 73.722656 16.671875 72.851562 14.941406 C 71.609375 12.480469 70.035156 10.292969 68.082031 8.332031 C 65.59375 5.835938 62.6875 3.90625 59.417969 2.59375 C 58.714844 2.308594 57.621094 1.929688 57.128906 1.800781 C 57.058594 1.78125 56.992188 1.761719 56.980469 1.753906 C 56.964844 1.746094 56.648438 1.65625 56.210938 1.542969 C 56.0625 1.503906 55.894531 1.457031 55.832031 1.4375 C 55.769531 1.417969 55.625 1.378906 55.503906 1.359375 C 55.382812 1.335938 55.234375 1.304688 55.171875 1.292969 C 54.933594 1.246094 53.363281 0.992188 52.949219 0.929688 C 51.882812 0.78125 50.230469 0.707031 49.058594 0.761719 Z M 51.085938 4.242188 C 52.0625 4.292969 52.507812 4.34375 53.832031 4.5625 C 54.703125 4.707031 55.578125 4.90625 56.40625 5.15625 C 56.472656 5.175781 56.605469 5.214844 56.699219 5.242188 C 56.929688 5.308594 57.625 5.554688 58.015625 5.707031 C 63.144531 7.683594 67.375 11.539062 69.828125 16.472656 C 70.445312 17.714844 70.972656 19.058594 71.289062 20.210938 C 71.335938 20.382812 71.386719 20.558594 71.398438 20.601562 C 71.460938 20.792969 71.628906 21.515625 71.707031 21.902344 C 71.804688 22.40625 72.007812 23.691406 72.058594 24.132812 C 72.195312 25.34375 72.214844 27.160156 72.105469 28.433594 C 72.007812 29.613281 71.792969 30.902344 71.53125 31.925781 C 71.511719 32.007812 71.480469 32.140625 71.460938 32.21875 C 71.441406 32.300781 71.402344 32.441406 71.375 32.53125 C 71.347656 32.625 71.304688 32.777344 71.277344 32.875 C 70.609375 35.175781 69.503906 37.460938 68.105469 39.425781 C 67.558594 40.195312 66.894531 41.015625 66.375 41.578125 C 66.199219 41.769531 66.199219 41.769531 66.074219 41.769531 L 65.945312 41.765625 L 65.871094 41.527344 C 65.617188 40.734375 65.15625 39.789062 64.648438 39.011719 C 63.117188 36.667969 60.730469 34.964844 58.066406 34.316406 C 57.53125 34.183594 57.1875 34.128906 56.675781 34.09375 C 56.445312 34.078125 56.207031 34.054688 56.136719 34.039062 C 56.054688 34.023438 54.210938 34.007812 50.207031 34.003906 C 44.554688 33.996094 44.386719 33.996094 43.898438 34.042969 C 43.625 34.070312 43.289062 34.101562 43.15625 34.109375 C 42.527344 34.148438 41.582031 34.371094 40.773438 34.671875 C 38.136719 35.65625 35.96875 37.609375 34.710938 40.128906 C 34.496094 40.5625 34.289062 41.058594 34.160156 41.441406 L 34.054688 41.769531 L 33.789062 41.753906 L 33.527344 41.472656 C 31.355469 39.089844 29.601562 35.949219 28.710938 32.832031 C 28.675781 32.710938 28.636719 32.578125 28.625 32.539062 C 28.597656 32.457031 28.429688 31.78125 28.359375 31.472656 C 28.105469 30.386719 27.910156 28.933594 27.84375 27.648438 C 27.777344 26.351562 27.851562 24.621094 28.015625 23.578125 C 28.042969 23.410156 28.082031 23.164062 28.101562 23.027344 C 28.261719 21.992188 28.433594 21.167969 28.609375 20.566406 C 28.628906 20.503906 28.65625 20.410156 28.671875 20.355469 C 29.15625 18.585938 29.988281 16.652344 30.984375 14.976562 C 32.140625 13.03125 33.742188 11.125 35.472656 9.625 C 37.410156 7.949219 39.640625 6.609375 42.023438 5.6875 C 42.414062 5.539062 43.128906 5.292969 43.460938 5.195312 C 43.558594 5.164062 43.730469 5.117188 43.835938 5.082031 C 44.359375 4.921875 45.5625 4.648438 46.035156 4.582031 C 46.113281 4.570312 46.28125 4.546875 46.402344 4.527344 C 47.4375 4.351562 48.070312 4.28125 49.058594 4.234375 C 49.441406 4.214844 50.671875 4.21875 51.085938 4.242188 Z M 51.085938 4.242188 "/>
<path style=" stroke:none;fill-rule:nonzero;fill:rgb(0%,0%,0%);fill-opacity:1;" d="M 49.339844 8.152344 C 48.8125 8.199219 48.433594 8.242188 48.339844 8.261719 C 48.28125 8.273438 48.089844 8.3125 47.914062 8.34375 C 47.742188 8.378906 47.535156 8.417969 47.460938 8.4375 C 47.390625 8.457031 47.238281 8.5 47.132812 8.527344 C 46.84375 8.605469 46.320312 8.789062 45.972656 8.925781 C 43 10.136719 40.660156 12.628906 39.644531 15.664062 C 39.488281 16.136719 39.4375 16.328125 39.296875 16.9375 C 39.242188 17.183594 39.148438 17.824219 39.113281 18.175781 C 39.074219 18.585938 39.074219 19.632812 39.113281 20.027344 C 39.148438 20.367188 39.269531 21.160156 39.320312 21.386719 C 39.554688 22.371094 39.765625 22.984375 40.152344 23.789062 C 40.40625 24.324219 40.589844 24.644531 40.933594 25.160156 C 42.3125 27.234375 44.328125 28.765625 46.730469 29.5625 C 47.417969 29.792969 48.078125 29.925781 49.011719 30.03125 C 49.363281 30.074219 50.632812 30.074219 50.988281 30.03125 C 51.597656 29.960938 51.855469 29.917969 52.332031 29.816406 C 54.457031 29.34375 56.492188 28.167969 57.992188 26.53125 C 59.15625 25.257812 59.996094 23.777344 60.5 22.097656 C 60.808594 21.070312 60.972656 19.652344 60.910156 18.578125 C 60.820312 17.046875 60.460938 15.671875 59.808594 14.339844 C 58.496094 11.664062 56.199219 9.644531 53.390625 8.691406 C 53.210938 8.628906 53 8.5625 52.929688 8.542969 C 52.855469 8.523438 52.707031 8.484375 52.597656 8.457031 C 52.273438 8.367188 51.695312 8.261719 51.269531 8.207031 C 50.882812 8.164062 49.640625 8.125 49.339844 8.152344 Z M 49.339844 8.152344 "/>
</g>
</svg>
